<?xml version="1.0" encoding="UTF-8"?>
<svg width="1200pt" height="1200pt" version="1.1" viewBox="0 0 1200 1200" xmlns="http://www.w3.org/2000/svg">
 <path d="m528.07 1116.5c-1.7695 9.1211-10.789 14.746-19.23 12.961-21.164-4.1094-42.191-9.7109-62.391-16.656-8.5781-2.9336-13.141-12.285-10.238-20.832 2.9062-8.5898 12.172-13.156 20.887-10.223 18.676 6.4336 38.32 11.66 57.961 15.492 8.8633 1.7305 14.672 10.348 13.012 19.258zm-114.54-33.961c-4.1523 8.2852-14.188 11.426-21.996 7.5117-19.367-9.5039-38.18-20.375-55.887-32.328-7.6094-5.0625-9.5469-15.258-4.4258-22.785 4.9805-7.5117 15.219-9.5312 22.688-4.4531 16.602 11.121 34.031 21.234 52.012 30.074 8.1641 3.9844 11.484 13.832 7.6094 21.98zm-286.35-385.87c-1.3867-22.027-1.5352-42.469 0-64.508 0.69141-9.0625 8.5781-15.906 17.57-15.301 8.9922 0.62109 15.77 8.4531 15.219 17.5-1.3047 20.289-1.3047 39.809 0 60.121 0.60547 9.4414-6.9336 17.5-16.324 17.5-8.5781 0-15.773-6.6523-16.465-15.312zm7.7461-123.42c4.1484-21.191 9.6836-42.18 16.602-62.402 3.043-8.5781 12.312-13.156 20.887-10.223 8.5781 2.9609 13.141 12.285 10.238 20.859-6.5039 18.801-11.621 38.332-15.492 58.043-1.7812 9.1133-10.77 14.738-19.23 12.961-8.9922-1.7266-14.801-10.359-13.004-19.238zm39.426-117.31c9.5469-19.34 20.336-38.141 32.371-55.887 4.9805-7.5273 15.219-9.5195 22.688-4.4414 7.6094 5.0625 9.5469 15.258 4.4258 22.785-11.066 16.516-21.164 34.016-30.02 52-4.0547 8.1797-13.82 11.477-21.996 7.5117-8.1602-3.9844-11.48-13.832-7.4688-21.969zm791.69-37.543c-5.1172-7.5234-3.043-17.719 4.4258-22.785 7.4688-5.0781 17.707-3.0859 22.824 4.4414 11.898 17.734 22.824 36.535 32.23 55.887 5.3984 11.023-2.7383 23.656-14.664 23.656-6.0859 0-11.898-3.375-14.801-9.1992-8.7148-18.012-18.949-35.496-30.016-52zm61.418 82.227c8.5781-2.9062 17.984 1.6445 20.887 10.223 6.918 20.211 12.59 41.211 16.738 62.375 1.9336 10.117-6.0586 19.574-16.184 19.574-7.7461 0-14.527-5.4375-16.047-13.266-3.875-19.711-9.1289-39.246-15.492-58.043-3.043-8.5781 1.5234-17.902 10.098-20.863zm45.238 131.52c1.457 23.137 1.4648 41.414 0 64.531-0.58203 9.1602-8.6914 16.004-17.43 15.273-9.1289-0.60938-15.91-8.4258-15.355-17.484 1.4609-22.715 1.4609-37.363 0-60.094-0.55469-9.0469 6.2266-16.875 15.355-17.5 8.9883-0.53906 16.875 6.2383 17.43 15.273zm-203.91 402.8c5.1172 7.5234 3.043 17.719-4.4258 22.785-17.707 11.953-36.66 22.824-55.887 32.328-7.9961 3.9023-18.008 0.71875-21.996-7.5117-4.0117-8.1484-0.69141-17.996 7.4688-21.98 17.984-8.8398 35.551-18.953 52.016-30.074 7.6055-5.0508 17.707-3.0859 22.824 4.4531zm-105 57.008c2.9062 8.5781-1.6602 17.93-10.238 20.859-20.195 6.918-41.223 12.52-62.391 16.656-8.7383 1.7266-17.422-3.8359-19.227-12.961-1.7969-8.9102 4.0117-17.527 12.867-19.258 19.781-3.8594 39.285-9.0625 58.102-15.492 8.5742-2.9336 17.844 1.6328 20.887 10.195zm-116.34 27.738c0.69141 9.0352-6.2266 16.879-15.215 17.484-21.988 1.457-42.598 1.4492-64.465 0-9.1289-0.60938-15.906-8.4531-15.355-17.484 0.69141-9.0469 8.5781-15.867 17.43-15.273 20.273 1.332 39.965 1.3867 60.176 0 8.9922-0.64844 16.875 6.2266 17.43 15.273zm-404.63-766.73c14.109-16.172 29.465-31.512 45.652-45.637 6.7773-5.9492 17.152-5.2422 23.242 1.5781 5.9492 6.8359 5.2578 17.18-1.6602 23.172-15.078 13.141-29.328 27.434-42.469 42.469-5.9531 6.8867-16.312 7.5195-23.102 1.5781-6.9219-5.9531-7.6133-16.328-1.6641-23.16zm88.395-59.043c-5.1172-7.5391-3.1797-17.734 4.4258-22.797 17.707-11.938 36.52-22.824 55.887-32.316 8.1602-3.9844 17.984-0.63672 21.996 7.4961 3.875 8.1484 0.55469 17.969-7.6094 21.98-17.984 8.8398-35.551 18.953-52.012 30.074-7.4102 5.0234-17.809 3.1016-22.688-4.4375zm455.26-47.613c4.0117-8.1328 13.832-11.48 21.996-7.4961 19.367 9.4883 38.18 20.375 55.887 32.316 13.375 9.0391 6.9805 30.031-9.2695 30.031-3.043 0-6.3633-0.91406-9.1289-2.793-16.461-11.121-34.031-21.234-52.016-30.074-8.1602-4.0156-11.48-13.84-7.4688-21.984zm101.81 62.594c5.9492-6.8203 16.324-7.5234 23.102-1.5781 16.184 14.125 31.539 29.465 45.652 45.637 9.2812 10.652 1.6367 27.211-12.312 27.211-4.5664 0-9.1289-1.9102-12.449-5.6289-13.141-15.051-27.391-29.34-42.469-42.469-6.7812-5.9883-7.4688-16.336-1.5234-23.172zm192.43 657.52v-3.5703c0-32.469-17.57-60.84-43.852-76.152 30.512-36.414 4.7344-93.875-44.129-93.875-48.457 0-75.008 56.566-44.266 93.875-26.145 15.285-43.852 43.688-43.852 76.152v3.5703c-17.43-20.336-28.082-46.73-28.082-75.559 0-64.047 52.152-116.14 116.2-116.14 64.047 0 116.06 52.098 116.06 116.14-0.003906 28.832-10.52 55.223-28.086 75.559zm-112.61-116.23c0 13.559 11.066 24.57 24.625 24.57s24.484-11.012 24.484-24.57c0-13.527-10.93-24.527-24.484-24.527-13.559 0-24.625 10.996-24.625 24.527zm-30.711 142.79c34.371 18.715 76.098 18.75 110.53 0v-30.129c0-30.461-24.762-55.266-55.195-55.266-30.57 0-55.336 24.805-55.336 55.266zm-337.4-94.898c-77.746 0-150.51-39.039-193.67-102.89l60.176-34.734c7.8047-4.5352 10.5-14.613 5.9492-22.426l-15.77-27.32c-6.0859-10.598-2.4883-24.18 8.1602-30.297 10.516-6.1016 24.207-2.4609 30.297 8.1211l15.77 27.32c4.4414 7.8984 14.605 10.539 22.41 6.0195l66.676-38.5 52.43 30.297-7.6094 13.102c-21.152 36.488 5.582 82.504 47.449 82.504 19.691 0 37.98-10.441 47.863-27.5l7.6094-13.102 45.926 26.504c-43.297 63.867-116.06 102.91-193.67 102.91zm-16.461-466.74c-121.18 8.4531-217.19 109.77-217.19 233.08 0 35.91 8.0234 71.023 23.516 102.38l45.926-26.574-7.6094-13.102c-15.078-26.27-6.0859-59.969 20.195-75.145 26.285-15.16 60.035-6.1289 75.117 20.141l7.6094 13.113 52.43-30.297v-76.984c0-9.0625 7.332-16.406 16.461-16.406h31.539c12.172 0 22.133-9.9453 22.133-22.16 0-12.23-9.9609-22.16-22.133-22.16h-31.539c-9.1289 0-16.461-7.3594-16.461-16.422zm-99.738-220.71c0-64.035 52.152-116.13 116.2-116.13 64.051 0 116.06 52.098 116.06 116.13 0 28.855-10.516 55.25-27.945 75.586v-3.5703c0-32.48-17.707-60.867-43.992-76.152 30.555-36.562 4.6484-93.887-44.129-93.887-48.363 0-75.051 56.426-44.266 93.887-26.145 15.285-43.852 43.672-43.852 76.152v3.5703c-17.434-20.332-28.082-46.727-28.082-75.586zm116.2 16.727c-30.57 0-55.336 24.805-55.336 55.293v30.129c34.41 18.68 76.059 18.711 110.53 0v-30.129c0-30.488-24.762-55.293-55.195-55.293zm-24.625-57.367c0 13.527 11.066 24.539 24.625 24.539s24.484-11.012 24.484-24.539c0-13.543-10.93-24.555-24.484-24.555-13.559 0-24.625 11.012-24.625 24.555zm258.27 494.44c0-123.31-96.004-224.6-217.32-233.08v53.051h15.219c30.297 0 54.918 24.664 54.918 54.988 0 30.336-24.625 55-54.918 55h-15.219v60.562l66.676 38.5c7.8867 4.5234 10.516 14.566 6.0859 22.41l-15.77 27.336c-3.043 5.0781-3.7344 11.055-2.2148 16.809 5.0781 19.184 30.836 22.242 40.531 5.3672l15.77-27.336c4.5547-7.832 14.57-10.559 22.41-6.0039l60.176 34.734c15.496-31.723 23.66-66.773 23.66-102.34zm-538.26 302v-3.5703c0-32.469-17.707-60.867-43.852-76.152 30.828-37.414 3.9766-93.875-44.266-93.875-48.457 0-75.008 56.566-44.266 93.875-26.145 15.285-43.852 43.688-43.852 76.152v3.5703c-17.43-20.336-28.082-46.73-28.082-75.559 0-64.047 52.152-116.14 116.2-116.14 64.051 0 116.06 52.098 116.06 116.14-0.003907 28.832-10.52 55.223-27.949 75.559zm-112.74-116.23c0 13.559 11.066 24.57 24.625 24.57 13.559 0 24.484-11.012 24.484-24.57 0-13.527-10.93-24.527-24.484-24.527-13.559 0-24.625 10.996-24.625 24.527zm-30.711 142.79c34.273 18.664 76.301 18.797 110.53 0v-30.129c0-30.461-24.762-55.266-55.195-55.266-30.57 0-55.336 24.805-55.336 55.266zm840.8-251.11c-49.246 0-92.961 24.027-120.21 60.977l-34.031-19.629c18.398-36.727 27.945-77.453 27.945-118.8 0-141.42-110.67-257.45-250.11-265.95v-39.77c74.562-8.2031 132.66-71.465 132.66-148.07 0-82.145-66.816-148.96-148.98-148.96-82.172 0-148.99 66.816-148.99 148.96 0 76.609 58.102 139.87 132.52 148.07v39.77c-139.3 8.4961-250.11 124.53-250.11 265.95 0 41.695 9.6836 82.461 27.941 118.82l-34.031 19.617c-27.113-36.949-70.828-60.977-120.07-60.977-82.172 0-148.99 66.828-148.99 148.99 0 82.145 66.816 148.99 148.99 148.99 106.75 0 179.34-109.51 136.54-208.54l34.031-19.672c49.109 73.953 132.8 119.27 222.16 119.27 89.363 0 172.92-45.32 222.03-119.27l34.168 19.672c-42.629 96.945 28.402 208.54 136.54 208.54 82.031 0 148.99-66.844 148.99-148.99 0.003906-82.164-66.949-148.99-148.98-148.99z" fill-rule="evenodd"/>
</svg>
