<svg width="351" height="57" viewBox="0 0 351 57" fill="none" xmlns="http://www.w3.org/2000/svg">
<path d="M207.39 12.5005C206.49 12.513 205.623 12.3163 204.786 11.9146C203.949 11.5128 203.246 10.9562 202.686 10.2447C201.865 9.22778 201.451 7.97226 201.451 6.48238C201.451 5.61608 201.614 4.79581 201.936 4.01739C202.263 3.25989 202.698 2.61121 203.25 2.07134C203.811 1.53984 204.456 1.12552 205.18 0.824194C205.925 0.510316 206.691 0.355469 207.469 0.355469C208.712 0.355469 209.8 0.652607 210.729 1.24688C211.16 1.54821 211.52 1.8579 211.801 2.17178C212.361 2.81209 212.742 3.49844 212.935 4.23083L211.102 4.86277C211.005 4.43171 210.809 4.00483 210.516 3.58214C210.311 3.28919 210.085 3.05064 209.834 2.8665C209.227 2.36011 208.432 2.10482 207.448 2.10482C206.389 2.10482 205.452 2.49403 204.64 3.27245C203.807 4.08435 203.393 5.1348 203.393 6.41961C203.393 7.70442 203.803 8.78416 204.627 9.58351C205.427 10.3619 206.364 10.7511 207.436 10.7511C208.335 10.7511 209.097 10.5084 209.725 10.0229C210.018 9.78439 210.256 9.54584 210.44 9.30729C210.775 8.86368 211.01 8.41169 211.139 7.94297L212.972 8.57491C212.7 9.55003 212.16 10.3829 211.349 11.0734C210.645 11.6677 209.863 12.0778 208.997 12.308C208.478 12.4377 207.942 12.5047 207.39 12.5047V12.5005Z" fill="black"/>
<path d="M214.458 2.5068C214.219 2.26825 214.102 1.99204 214.102 1.67816C214.102 1.36428 214.219 1.07133 214.458 0.83278C214.684 0.594232 214.96 0.477051 215.287 0.477051C215.613 0.477051 215.902 0.594232 216.132 0.83278C216.358 1.05877 216.475 1.34336 216.475 1.67816C216.475 2.01296 216.362 2.27662 216.132 2.5068C215.893 2.74535 215.613 2.86253 215.287 2.86253C214.96 2.86253 214.697 2.74535 214.458 2.5068ZM214.395 12.3542V4.28963H216.195V12.3542H214.395Z" fill="black"/>
<path d="M222.749 4.28977V5.91357H220.706V9.75963C220.706 10.1154 220.802 10.379 220.999 10.5464C221.196 10.7138 221.506 10.7975 221.941 10.7975C222.158 10.7975 222.401 10.7766 222.673 10.7306V12.2707C222.271 12.3795 221.845 12.4339 221.393 12.4339C220.56 12.4339 219.936 12.2372 219.526 11.848C219.116 11.4588 218.911 10.7933 218.911 9.8517V5.90938H217.354V4.28558H218.911V1.78711H220.71V4.28558H222.753L222.749 4.28977Z" fill="black"/>
<path d="M224.188 2.5068C223.95 2.26825 223.833 1.99204 223.833 1.67816C223.833 1.36428 223.95 1.07133 224.188 0.83278C224.414 0.594232 224.69 0.477051 225.017 0.477051C225.343 0.477051 225.632 0.594232 225.862 0.83278C226.088 1.05877 226.205 1.34336 226.205 1.67816C226.205 2.01296 226.092 2.27662 225.862 2.5068C225.624 2.74535 225.343 2.86253 225.017 2.86253C224.69 2.86253 224.427 2.74535 224.188 2.5068ZM224.125 12.3542V4.28963H225.925V12.3542H224.125Z" fill="black"/>
<path d="M231.742 5.86313H227.474V4.28955H233.994V5.71665L229.549 10.7931H234.011V12.35H227.361V10.8559L231.742 5.85894V5.86313Z" fill="black"/>
<path d="M242.778 8.85139H236.647C236.66 9.43729 236.906 9.93532 237.392 10.3538C237.877 10.7723 238.417 10.9732 239.016 10.9607C240.142 10.9607 240.853 10.5045 241.158 9.59633L242.669 10.0651C242.527 10.5505 242.272 10.9858 241.899 11.3624C241.527 11.7391 241.092 12.0278 240.594 12.2204C240.075 12.4045 239.556 12.4966 239.037 12.4966C237.869 12.5175 236.869 12.1199 236.036 11.2955C235.203 10.4752 234.797 9.47915 234.818 8.31152C234.818 7.55402 234.99 6.85512 235.337 6.21899C235.693 5.55775 236.182 5.05136 236.798 4.69563C237.425 4.31898 238.116 4.12646 238.873 4.12646C240.108 4.12646 241.071 4.51149 241.761 5.27735C242.464 6.0474 242.816 7.05182 242.816 8.29478C242.816 8.44544 242.803 8.62958 242.782 8.8472L242.778 8.85139ZM238.886 5.67075C238.313 5.67075 237.836 5.83815 237.459 6.17296C237.057 6.4952 236.823 6.93463 236.743 7.48706H240.979C240.945 6.94719 240.736 6.50357 240.347 6.15621C239.936 5.82978 239.447 5.67075 238.886 5.67075Z" fill="black"/>
<path d="M249.868 12.3545V7.843C249.868 7.21524 249.717 6.72559 249.416 6.36568C249.114 6.00995 248.671 5.82999 248.085 5.82999C247.499 5.82999 247.055 6.01413 246.72 6.38242C246.386 6.7507 246.218 7.24035 246.218 7.85974V12.3545H244.419V4.28989H246.172V5.378C246.411 5.06413 246.695 4.80465 247.03 4.59959C247.365 4.40289 247.654 4.27315 247.888 4.21038C248.16 4.15597 248.407 4.13086 248.633 4.13086C249.629 4.13086 250.378 4.43218 250.889 5.03902C251.399 5.62492 251.65 6.40753 251.65 7.39101V12.3545H249.868Z" fill="black"/>
<path d="M258.468 6.52881V8.36186H253.567V6.52881H258.468Z" fill="black"/>
<path d="M266.265 12.5005C265.365 12.513 264.499 12.3163 263.662 11.9146C262.825 11.5128 262.122 10.9562 261.561 10.2447C260.74 9.22778 260.326 7.97226 260.326 6.48238C260.326 5.61608 260.489 4.79581 260.812 4.01739C261.138 3.25989 261.573 2.61121 262.126 2.07134C262.687 1.53984 263.331 1.12552 264.055 0.824194C264.8 0.510316 265.566 0.355469 266.344 0.355469C267.587 0.355469 268.675 0.652607 269.604 1.24688C270.035 1.54821 270.395 1.8579 270.676 2.17178C271.237 2.81209 271.617 3.49844 271.81 4.23083L269.977 4.86277C269.881 4.43171 269.684 4.00483 269.391 3.58214C269.186 3.28919 268.96 3.05064 268.709 2.8665C268.102 2.36011 267.307 2.10482 266.323 2.10482C265.265 2.10482 264.327 2.49403 263.515 3.27245C262.682 4.08435 262.268 5.1348 262.268 6.41961C262.268 7.70442 262.678 8.78416 263.503 9.58351C264.302 10.3619 265.239 10.7511 266.311 10.7511C267.211 10.7511 267.972 10.5084 268.6 10.0229C268.893 9.78439 269.132 9.54584 269.316 9.30729C269.65 8.86368 269.885 8.41169 270.015 7.94297L271.848 8.57491C271.576 9.55003 271.036 10.3829 270.224 11.0734C269.521 11.6677 268.738 12.0778 267.872 12.308C267.353 12.4377 266.817 12.5047 266.265 12.5047V12.5005Z" fill="black"/>
<path d="M280.829 8.85139H274.698C274.71 9.43729 274.957 9.93532 275.443 10.3538C275.928 10.7723 276.468 10.9732 277.066 10.9607C278.192 10.9607 278.904 10.5045 279.209 9.59633L280.72 10.0651C280.578 10.5505 280.322 10.9858 279.95 11.3624C279.577 11.7391 279.142 12.0278 278.644 12.2204C278.125 12.4045 277.606 12.4966 277.087 12.4966C275.92 12.5175 274.919 12.1199 274.087 11.2955C273.254 10.4752 272.848 9.47915 272.869 8.31152C272.869 7.55402 273.04 6.85512 273.388 6.21899C273.743 5.55775 274.233 5.05136 274.848 4.69563C275.476 4.31898 276.167 4.12646 276.924 4.12646C278.159 4.12646 279.121 4.51149 279.812 5.27735C280.515 6.0474 280.866 7.05182 280.866 8.29478C280.866 8.44544 280.854 8.62958 280.833 8.8472L280.829 8.85139ZM276.937 5.67075C276.363 5.67075 275.886 5.83815 275.509 6.17296C275.108 6.4952 274.873 6.93463 274.794 7.48706H279.029C278.996 6.94719 278.786 6.50357 278.397 6.15621C277.987 5.82978 277.497 5.67075 276.937 5.67075Z" fill="black"/>
<path d="M287.918 12.3545V7.843C287.918 7.21524 287.768 6.72559 287.466 6.36568C287.165 6.00995 286.721 5.82999 286.135 5.82999C285.549 5.82999 285.106 6.01413 284.771 6.38242C284.436 6.7507 284.269 7.24035 284.269 7.85974V12.3545H282.469V4.28989H284.223V5.378C284.461 5.06413 284.746 4.80465 285.081 4.59959C285.416 4.40289 285.704 4.27315 285.939 4.21038C286.211 4.15597 286.458 4.13086 286.684 4.13086C287.68 4.13086 288.429 4.43218 288.939 5.03902C289.45 5.62492 289.701 6.40753 289.701 7.39101V12.3545H287.918Z" fill="black"/>
<path d="M296.146 4.28977V5.91357H294.104V9.75963C294.104 10.1154 294.2 10.379 294.397 10.5464C294.593 10.7138 294.903 10.7975 295.338 10.7975C295.556 10.7975 295.799 10.7766 296.071 10.7306V12.2707C295.669 12.3795 295.242 12.4339 294.79 12.4339C293.957 12.4339 293.334 12.2372 292.924 11.848C292.513 11.4588 292.308 10.7933 292.308 9.8517V5.90938H290.751V4.28558H292.308V1.78711H294.108V4.28558H296.15L296.146 4.28977Z" fill="black"/>
<path d="M302.026 4.26032V6.11011C301.884 6.07663 301.716 6.05989 301.524 6.05989C300.842 6.05989 300.319 6.24822 299.959 6.62906C299.599 7.0099 299.415 7.54977 299.415 8.25286V12.3584H297.615V4.28962H299.385V5.53676C299.611 5.11407 299.925 4.79182 300.319 4.56165C300.712 4.33565 301.139 4.22266 301.591 4.22266C301.708 4.22266 301.854 4.23521 302.03 4.25614L302.026 4.26032Z" fill="black"/>
<path d="M303.236 2.5068C302.997 2.26825 302.88 1.99204 302.88 1.67816C302.88 1.36428 302.997 1.07133 303.236 0.83278C303.462 0.594232 303.738 0.477051 304.064 0.477051C304.391 0.477051 304.679 0.594232 304.91 0.83278C305.136 1.05877 305.253 1.34336 305.253 1.67816C305.253 2.01296 305.14 2.27662 304.91 2.5068C304.671 2.74535 304.391 2.86253 304.064 2.86253C303.738 2.86253 303.474 2.74535 303.236 2.5068ZM303.173 12.3542V4.28963H304.972V12.3542H303.173Z" fill="black"/>
<path d="M310.718 12.501C309.551 12.5219 308.551 12.1201 307.726 11.2915C306.897 10.4628 306.496 9.4668 306.517 8.29917C306.517 7.54168 306.701 6.84277 307.069 6.20664C307.425 5.57052 307.935 5.05994 308.592 4.68329C309.229 4.315 309.944 4.13086 310.735 4.13086C311.698 4.13086 312.514 4.38615 313.183 4.89254C313.853 5.39056 314.28 6.00158 314.464 6.72559L312.84 7.26128C312.744 6.91392 312.539 6.5833 312.225 6.27361C311.857 5.92625 311.359 5.75466 310.731 5.75466C310.07 5.75466 309.509 5.98902 309.044 6.45356C308.588 6.93066 308.362 7.54168 308.362 8.28661C308.362 9.03155 308.584 9.63839 309.028 10.1364C309.484 10.6219 310.057 10.8646 310.748 10.8646C311.777 10.8646 312.485 10.3498 312.874 9.32451L314.514 9.86019C314.33 10.5214 313.928 11.1073 313.313 11.6263C312.644 12.2122 311.777 12.501 310.718 12.501Z" fill="black"/>
<path d="M203.719 29.8604L202.614 32.6351H200.714L205.531 20.8081H207.72L212.508 32.6351H210.579L209.49 29.8604H203.715H203.719ZM204.368 28.2073H208.863L206.607 22.5951L204.368 28.2073Z" fill="black"/>
<path d="M217.814 24.5369V26.3867C217.672 26.3532 217.505 26.3365 217.312 26.3365C216.63 26.3365 216.107 26.5248 215.747 26.9056C215.387 27.2865 215.203 27.8263 215.203 28.5294V32.635H213.403V24.5704H215.174V25.8175C215.4 25.3948 215.713 25.0726 216.107 24.8424C216.5 24.6164 216.927 24.5034 217.379 24.5034C217.496 24.5034 217.643 24.516 217.819 24.5369H217.814Z" fill="black"/>
<path d="M223.795 24.5703V26.1941H221.753V30.0401C221.753 30.3958 221.849 30.6595 222.046 30.8269C222.242 30.9943 222.552 31.078 222.987 31.078C223.205 31.078 223.448 31.0571 223.72 31.0152V32.5553C223.318 32.6641 222.891 32.7185 222.439 32.7185C221.606 32.7185 220.983 32.5218 220.572 32.1326C220.162 31.7434 219.957 31.078 219.957 30.1364V26.1941H218.4V24.5703H219.957V22.0718H221.757V24.5703H223.799H223.795Z" fill="black"/>
<path d="M225.071 22.7876C224.833 22.549 224.716 22.2728 224.716 21.9589C224.716 21.645 224.833 21.3521 225.071 21.1135C225.297 20.875 225.574 20.7578 225.9 20.7578C226.226 20.7578 226.515 20.875 226.745 21.1135C226.971 21.3395 227.088 21.6241 227.088 21.9589C227.088 22.2937 226.975 22.5574 226.745 22.7876C226.507 23.0261 226.226 23.1433 225.9 23.1433C225.574 23.1433 225.31 23.0261 225.071 22.7876ZM225.009 32.635V24.5704H226.808V32.635H225.009Z" fill="black"/>
<path d="M234.864 26.1605H231.261V32.6348H229.462V26.1605H227.921V24.5702H229.462V23.6286C229.462 22.4484 229.759 21.5905 230.353 21.0506C230.914 20.5526 231.613 20.3057 232.445 20.3057C232.902 20.3057 233.236 20.3475 233.45 20.4354V21.9588C233.278 21.9169 233.061 21.8918 232.801 21.8918C232.487 21.8918 232.173 21.9839 231.86 22.168C231.458 22.4275 231.261 22.9088 231.261 23.6119V24.5702H236.664V32.6348H234.864V26.1605ZM234.571 21.9588C234.571 21.6323 234.689 21.3519 234.927 21.1134C235.153 20.8748 235.429 20.7576 235.756 20.7576C236.082 20.7576 236.363 20.8748 236.601 21.1134C236.827 21.3394 236.94 21.624 236.94 21.9588C236.94 22.2936 236.827 22.5572 236.601 22.7874C236.363 23.0259 236.082 23.1431 235.756 23.1431C235.429 23.1431 235.166 23.0259 234.927 22.7874C234.689 22.5489 234.571 22.2726 234.571 21.9588Z" fill="black"/>
<path d="M242.293 32.7812C241.125 32.8022 240.125 32.4004 239.301 31.5718C238.472 30.7431 238.07 29.7471 238.091 28.5794C238.091 27.8219 238.275 27.123 238.644 26.4869C238.999 25.8508 239.51 25.3402 240.167 24.9636C240.803 24.5953 241.519 24.4111 242.31 24.4111C243.272 24.4111 244.088 24.6664 244.758 25.1728C245.428 25.6708 245.854 26.2818 246.039 27.0059L244.415 27.5415C244.318 27.1942 244.113 26.8636 243.799 26.5539C243.431 26.2065 242.933 26.0349 242.305 26.0349C241.644 26.0349 241.083 26.2693 240.619 26.7338C240.163 27.2109 239.937 27.8219 239.937 28.5669C239.937 29.3118 240.159 29.9187 240.602 30.4167C241.058 30.9021 241.632 31.1491 242.322 31.1491C243.352 31.1491 244.059 30.6343 244.448 29.609L246.089 30.1447C245.905 30.8059 245.503 31.3918 244.888 31.9107C244.218 32.4967 243.352 32.7854 242.293 32.7854V32.7812Z" fill="black"/>
<path d="M247.432 22.7876C247.193 22.549 247.076 22.2728 247.076 21.9589C247.076 21.645 247.193 21.3521 247.432 21.1135C247.658 20.875 247.934 20.7578 248.261 20.7578C248.587 20.7578 248.876 20.875 249.106 21.1135C249.332 21.3395 249.449 21.6241 249.449 21.9589C249.449 22.2937 249.336 22.5574 249.106 22.7876C248.867 23.0261 248.587 23.1433 248.261 23.1433C247.934 23.1433 247.67 23.0261 247.432 22.7876ZM247.369 32.635V24.5704H249.169V32.635H247.369Z" fill="black"/>
<path d="M257.543 32.6348H255.79C255.735 32.3878 255.71 32.0196 255.71 31.5299C255.438 31.9735 255.095 32.2916 254.672 32.4883C254.241 32.685 253.797 32.7812 253.341 32.7812C252.55 32.7812 251.902 32.5552 251.395 32.0991C250.885 31.6555 250.634 31.0863 250.634 30.3958V30.3162C250.646 29.2909 251.165 28.5753 252.19 28.1735C252.743 27.9559 253.337 27.8512 253.977 27.8512H254.982C255.48 27.8512 255.727 27.6253 255.727 27.1691C255.727 26.8217 255.593 26.533 255.321 26.2944C255.028 26.0559 254.634 25.9387 254.136 25.9387C253.638 25.9387 253.266 26.06 252.952 26.3028C252.638 26.5455 252.45 26.8719 252.383 27.2863L250.742 26.9138C250.797 26.5371 250.981 26.1312 251.295 25.6959C251.63 25.2649 252.052 24.9384 252.559 24.7208C253.002 24.5158 253.551 24.4111 254.199 24.4111C255.714 24.4111 256.719 24.9636 257.217 26.0642C257.401 26.466 257.493 26.9389 257.493 27.4913V31.3374C257.493 31.8773 257.51 32.3125 257.543 32.6348ZM255.71 29.3746V29.1151H253.973C253.597 29.1151 253.245 29.2114 252.919 29.4081C252.592 29.6131 252.433 29.8894 252.433 30.2367C252.433 30.5841 252.55 30.8394 252.789 31.0403C253.027 31.2411 253.333 31.3416 253.714 31.3416C254.329 31.3416 254.819 31.1616 255.174 30.8059C255.53 30.4502 255.71 29.9731 255.71 29.3788V29.3746Z" fill="black"/>
<path d="M261.142 20.335V32.6348H259.343V20.335H261.142Z" fill="black"/>
<path d="M269.044 20.8081V32.6351H267.194V20.8081H269.044Z" fill="black"/>
<path d="M276.706 32.6348V28.1233C276.706 27.4955 276.556 27.0059 276.255 26.6459C275.953 26.2902 275.51 26.1103 274.924 26.1103C274.338 26.1103 273.894 26.2944 273.559 26.6627C273.225 27.031 273.057 27.5206 273.057 28.14V32.6348H271.258V24.5702H273.011V25.6583C273.25 25.3444 273.534 25.0849 273.869 24.8799C274.204 24.6832 274.493 24.5534 274.727 24.4906C274.999 24.4362 275.246 24.4111 275.472 24.4111C276.468 24.4111 277.217 24.7125 277.728 25.3193C278.238 25.9052 278.489 26.6878 278.489 27.6713V32.6348H276.706Z" fill="black"/>
<path d="M284.771 24.5703V26.1941H282.729V30.0401C282.729 30.3958 282.825 30.6595 283.022 30.8269C283.218 30.9943 283.528 31.078 283.963 31.078C284.181 31.078 284.424 31.0571 284.696 31.0152V32.5553C284.294 32.6641 283.867 32.7185 283.415 32.7185C282.582 32.7185 281.959 32.5218 281.549 32.1326C281.138 31.7434 280.933 31.078 280.933 30.1364V26.1941H279.376V24.5703H280.933V22.0718H282.733V24.5703H284.775H284.771Z" fill="black"/>
<path d="M293.355 29.1321H287.223C287.236 29.7181 287.483 30.2161 287.968 30.6346C288.454 31.0531 288.994 31.254 289.592 31.2414C290.718 31.2414 291.429 30.7852 291.735 29.8771L293.246 30.3458C293.103 30.8313 292.848 31.2665 292.476 31.6432C292.103 32.0198 291.668 32.3086 291.17 32.5011C290.651 32.6853 290.132 32.7773 289.613 32.7773C288.445 32.7983 287.445 32.4007 286.612 31.5762C285.78 30.7559 285.374 29.7599 285.395 28.5923C285.395 27.8348 285.566 27.1359 285.914 26.4998C286.269 25.8385 286.759 25.3321 287.374 24.9764C288.002 24.5997 288.692 24.4072 289.45 24.4072C290.684 24.4072 291.647 24.7923 292.338 25.5581C293.041 26.3282 293.392 27.3326 293.392 28.5755C293.392 28.7262 293.38 28.9103 293.359 29.128L293.355 29.1321ZM289.462 25.9515C288.889 25.9515 288.412 26.1189 288.035 26.4537C287.634 26.776 287.399 27.2154 287.32 27.7678H291.555C291.521 27.228 291.312 26.7843 290.923 26.437C290.513 26.1105 290.023 25.9515 289.462 25.9515Z" fill="black"/>
<path d="M296.648 20.335V32.6348H294.849V20.335H296.648Z" fill="black"/>
<path d="M300.369 20.335V32.6348H298.569V20.335H300.369Z" fill="black"/>
<path d="M302.357 22.7876C302.118 22.549 302.001 22.2728 302.001 21.9589C302.001 21.645 302.118 21.3521 302.357 21.1135C302.583 20.875 302.859 20.7578 303.185 20.7578C303.512 20.7578 303.801 20.875 304.031 21.1135C304.257 21.3395 304.374 21.6241 304.374 21.9589C304.374 22.2937 304.261 22.5574 304.031 22.7876C303.792 23.0261 303.512 23.1433 303.185 23.1433C302.859 23.1433 302.595 23.0261 302.357 22.7876ZM302.294 32.635V24.5704H304.094V32.635H302.294Z" fill="black"/>
<path d="M309.375 32.6975C308.216 32.6975 307.274 32.2832 306.55 31.4504C305.814 30.6301 305.445 29.6717 305.445 28.5794C305.445 27.5541 305.797 26.6167 306.5 25.7713C306.835 25.3611 307.257 25.0347 307.772 24.7962C308.287 24.5576 308.835 24.4404 309.421 24.4404C309.873 24.4404 310.35 24.5492 310.848 24.7669C311.388 25.0138 311.794 25.3611 312.066 25.8048V24.5702H313.82V32.5845C313.82 33.4174 313.623 34.1456 313.234 34.7733C312.824 35.422 312.305 35.8907 311.677 36.1837C311.028 36.5101 310.287 36.6691 309.455 36.6691C308.136 36.6691 307.073 36.2674 306.274 35.468C305.864 35.0579 305.596 34.5473 305.479 33.9447L307.165 33.4592C307.262 33.9028 307.521 34.2753 307.944 34.5766C308.366 34.9031 308.848 35.0621 309.388 35.0621C310.124 35.0621 310.744 34.857 311.254 34.4553C311.761 34.0493 312.016 33.4508 312.016 32.6641V31.3332C311.819 31.6471 311.547 31.9191 311.187 32.1451C310.831 32.3627 310.501 32.5092 310.195 32.5845C309.861 32.6599 309.584 32.6975 309.367 32.6975H309.375ZM312.053 28.546C312.053 27.8303 311.832 27.236 311.388 26.7631C310.953 26.286 310.375 26.0475 309.651 26.0475C308.927 26.0475 308.341 26.286 307.898 26.7631C307.454 27.2402 307.232 27.8345 307.232 28.546C307.232 29.2574 307.458 29.8601 307.914 30.3455C308.371 30.8436 308.948 31.0905 309.651 31.0905C310.354 31.0905 310.932 30.8394 311.388 30.3455C311.832 29.8475 312.053 29.2491 312.053 28.546Z" fill="black"/>
<path d="M323.202 29.1321H317.071C317.084 29.7181 317.331 30.2161 317.816 30.6346C318.302 31.0531 318.842 31.254 319.44 31.2414C320.566 31.2414 321.277 30.7852 321.583 29.8771L323.094 30.3458C322.951 30.8313 322.696 31.2665 322.324 31.6432C321.951 32.0198 321.516 32.3086 321.018 32.5011C320.499 32.6853 319.98 32.7773 319.461 32.7773C318.293 32.7983 317.293 32.4007 316.46 31.5762C315.627 30.7559 315.222 29.7599 315.242 28.5923C315.242 27.8348 315.414 27.1359 315.761 26.4998C316.117 25.8385 316.607 25.3321 317.222 24.9764C317.85 24.5997 318.54 24.4072 319.298 24.4072C320.532 24.4072 321.495 24.7923 322.185 25.5581C322.889 26.3282 323.24 27.3326 323.24 28.5755C323.24 28.7262 323.228 28.9103 323.207 29.128L323.202 29.1321ZM319.31 25.9515C318.737 25.9515 318.26 26.1189 317.883 26.4537C317.481 26.776 317.247 27.2154 317.168 27.7678H321.403C321.369 27.228 321.16 26.7843 320.771 26.437C320.361 26.1105 319.871 25.9515 319.31 25.9515Z" fill="black"/>
<path d="M330.129 32.6348V28.1233C330.129 27.4955 329.978 27.0059 329.677 26.6459C329.375 26.2902 328.932 26.1103 328.346 26.1103C327.76 26.1103 327.316 26.2944 326.981 26.6627C326.647 27.031 326.479 27.5206 326.479 28.14V32.6348H324.68V24.5702H326.433V25.6583C326.672 25.3444 326.956 25.0849 327.291 24.8799C327.626 24.6832 327.915 24.5534 328.149 24.4906C328.421 24.4362 328.668 24.4111 328.894 24.4111C329.89 24.4111 330.639 24.7125 331.15 25.3193C331.66 25.9052 331.911 26.6878 331.911 27.6713V32.6348H330.129Z" fill="black"/>
<path d="M337.465 32.7812C336.297 32.8022 335.297 32.4004 334.473 31.5718C333.644 30.7431 333.242 29.7471 333.263 28.5794C333.263 27.8219 333.447 27.123 333.816 26.4869C334.171 25.8508 334.682 25.3402 335.339 24.9636C335.975 24.5953 336.691 24.4111 337.482 24.4111C338.444 24.4111 339.26 24.6664 339.93 25.1728C340.6 25.6708 341.026 26.2818 341.211 27.0059L339.587 27.5415C339.491 27.1942 339.286 26.8636 338.972 26.5539C338.603 26.2065 338.105 26.0349 337.478 26.0349C336.816 26.0349 336.256 26.2693 335.791 26.7338C335.335 27.2109 335.109 27.8219 335.109 28.5669C335.109 29.3118 335.331 29.9187 335.774 30.4167C336.23 30.9021 336.804 31.1491 337.494 31.1491C338.524 31.1491 339.231 30.6343 339.62 29.609L341.261 30.1447C341.077 30.8059 340.675 31.3918 340.06 31.9107C339.39 32.4967 338.524 32.7854 337.465 32.7854V32.7812Z" fill="black"/>
<path d="M349.97 29.1321H343.839C343.851 29.7181 344.098 30.2161 344.584 30.6346C345.069 31.0531 345.609 31.254 346.208 31.2414C347.333 31.2414 348.045 30.7852 348.35 29.8771L349.861 30.3458C349.719 30.8313 349.464 31.2665 349.091 31.6432C348.719 32.0198 348.283 32.3086 347.785 32.5011C347.266 32.6853 346.748 32.7773 346.229 32.7773C345.061 32.7983 344.061 32.4007 343.228 31.5762C342.395 30.7559 341.989 29.7599 342.01 28.5923C342.01 27.8348 342.182 27.1359 342.529 26.4998C342.885 25.8385 343.374 25.3321 343.99 24.9764C344.617 24.5997 345.308 24.4072 346.065 24.4072C347.3 24.4072 348.262 24.7923 348.953 25.5581C349.656 26.3282 350.008 27.3326 350.008 28.5755C350.008 28.7262 349.995 28.9103 349.974 29.128L349.97 29.1321ZM346.078 25.9515C345.505 25.9515 345.027 26.1189 344.651 26.4537C344.249 26.776 344.015 27.2154 343.935 27.7678H348.17C348.137 27.228 347.928 26.7843 347.538 26.437C347.128 26.1105 346.639 25.9515 346.078 25.9515Z" fill="black"/>
<path d="M205.732 53.0455C204.393 53.0455 203.338 52.6772 202.568 51.9406C201.844 51.2584 201.438 50.4758 201.35 49.5886L203.15 49.1031C203.28 49.8062 203.573 50.3587 204.025 50.7562C204.489 51.1664 205.067 51.3714 205.761 51.3714C206.347 51.3714 206.854 51.2166 207.285 50.9027C207.695 50.5888 207.9 50.1954 207.9 49.7183C207.9 49.2412 207.745 48.8897 207.431 48.6009C207.117 48.308 206.69 48.1029 206.151 47.9857L204.69 47.6928C203.748 47.4961 203.02 47.1069 202.501 46.5251C201.97 45.9518 201.706 45.2696 201.706 44.4828C201.685 43.5328 202.07 42.6916 202.857 41.9676C203.648 41.2436 204.56 40.8921 205.598 40.913C207.092 40.9255 208.185 41.3733 208.875 42.2606C209.264 42.7126 209.52 43.2399 209.637 43.8342L207.9 44.3698C207.783 43.9053 207.523 43.4952 207.122 43.1353C206.72 42.7795 206.23 42.5996 205.644 42.5996C205.058 42.5996 204.577 42.767 204.2 43.1018C203.799 43.4366 203.602 43.8383 203.602 44.3029C203.602 44.6586 203.736 44.9892 204.008 45.2906C204.288 45.5835 204.652 45.776 205.096 45.8765L206.59 46.1694C207.628 46.3745 208.427 46.7762 208.984 47.3705C209.54 47.9648 209.821 48.7056 209.821 49.5928C209.821 50.48 209.469 51.2794 208.766 51.9615C208.009 52.6855 206.996 53.0496 205.732 53.0496V53.0455Z" fill="black"/>
<path d="M213.617 52.0075L210.03 44.8511H212.073L214.588 50.141L216.906 44.8511H218.852L213.32 56.8915H211.407L213.613 52.0075H213.617Z" fill="black"/>
<path d="M222.23 53.0621C221.029 53.0496 220.146 52.6729 219.585 51.928C219.258 51.5053 219.083 51.0993 219.049 50.7101L220.589 50.3042C220.677 50.6934 220.861 51.0031 221.142 51.2375C221.422 51.4718 221.778 51.5848 222.213 51.5848C222.569 51.5848 222.849 51.5011 223.05 51.3337C223.251 51.1663 223.351 50.9361 223.351 50.6432C223.351 50.1996 223.033 49.9024 222.393 49.7518L221.372 49.509C220.681 49.3458 220.15 49.0612 219.781 48.6553C219.413 48.2493 219.229 47.7639 219.229 47.2031C219.229 46.5125 219.505 45.9183 220.058 45.4202C220.61 44.9222 221.284 44.6753 222.087 44.6753C223.222 44.6878 224.05 45.0436 224.569 45.7467C224.841 46.1024 225 46.4665 225.055 46.8348L223.544 47.2575C223.468 46.9227 223.309 46.6506 223.067 46.4456C222.824 46.2405 222.498 46.1359 222.087 46.1359C221.786 46.1359 221.527 46.2238 221.309 46.3953C221.091 46.546 220.983 46.7636 220.983 47.044C220.983 47.496 221.255 47.7806 221.794 47.8894L222.899 48.1154C223.623 48.2786 224.188 48.5758 224.586 49.0068C224.988 49.463 225.184 49.9736 225.184 50.5469C225.184 51.2291 224.929 51.8192 224.414 52.3172C223.9 52.8152 223.171 53.0621 222.234 53.0621H222.23Z" fill="black"/>
<path d="M231.265 44.851V46.4748H229.223V50.3209C229.223 50.6766 229.319 50.9403 229.516 51.1077C229.712 51.2751 230.022 51.3588 230.457 51.3588C230.675 51.3588 230.918 51.3378 231.19 51.296V52.8361C230.788 52.9449 230.361 52.9993 229.909 52.9993C229.076 52.9993 228.453 52.8026 228.043 52.4134C227.633 52.0242 227.427 51.3588 227.427 50.4171V46.4748H225.871V44.851H227.427V42.3525H229.227V44.851H231.269H231.265Z" fill="black"/>
<path d="M239.849 49.4085H233.718C233.73 49.9944 233.977 50.4924 234.462 50.911C234.948 51.3295 235.488 51.5303 236.086 51.5178C237.212 51.5178 237.924 51.0616 238.229 50.1535L239.74 50.6222C239.598 51.1076 239.342 51.5429 238.97 51.9195C238.597 52.2962 238.162 52.585 237.664 52.7775C237.145 52.9616 236.626 53.0537 236.107 53.0537C234.94 53.0746 233.939 52.677 233.107 51.8526C232.274 51.0323 231.868 50.0363 231.889 48.8686C231.889 48.1112 232.06 47.4122 232.408 46.7761C232.763 46.1149 233.253 45.6085 233.868 45.2528C234.496 44.8761 235.187 44.6836 235.944 44.6836C237.179 44.6836 238.141 45.0686 238.832 45.8345C239.535 46.6003 239.886 47.6089 239.886 48.8519C239.886 49.0026 239.874 49.1867 239.853 49.4043L239.849 49.4085ZM235.957 46.2279C235.383 46.2279 234.906 46.3953 234.529 46.7301C234.128 47.0523 233.893 47.4918 233.814 48.0442H238.049C238.016 47.5043 237.806 47.0607 237.417 46.7133C237.007 46.3869 236.517 46.2279 235.957 46.2279Z" fill="black"/>
<path d="M246.628 52.9157V48.3874C246.628 47.7597 246.486 47.27 246.197 46.9101C245.913 46.5544 245.482 46.3744 244.908 46.3744C244.335 46.3744 243.912 46.5586 243.611 46.9268C243.285 47.3161 243.125 47.8141 243.125 48.4209V52.9157H241.326V44.8511H243.079V45.9392C243.326 45.6044 243.611 45.3449 243.925 45.1608C244.26 44.9431 244.536 44.8092 244.753 44.7548C245.026 44.7004 245.272 44.6753 245.498 44.6753C246.658 44.6753 247.482 45.1147 247.98 45.9894C248.369 45.5583 248.792 45.2235 249.244 44.985C249.667 44.7799 250.177 44.6753 250.784 44.6753C251.768 44.6753 252.513 44.9892 253.023 45.6169C253.488 46.2112 253.722 46.9854 253.722 47.9354V52.9157H251.922V48.3749C251.922 47.7471 251.78 47.2575 251.491 46.9059C251.203 46.5544 250.776 46.3786 250.202 46.3786C249.629 46.3786 249.206 46.5628 248.905 46.931C248.583 47.3077 248.42 47.8015 248.42 48.4084V52.9198H246.637L246.628 52.9157Z" fill="black"/>
<path d="M258.221 53.0621C257.02 53.0496 256.137 52.6729 255.576 51.928C255.25 51.5053 255.074 51.0993 255.041 50.7101L256.581 50.3042C256.669 50.6934 256.853 51.0031 257.133 51.2375C257.413 51.4718 257.769 51.5848 258.204 51.5848C258.56 51.5848 258.841 51.5011 259.041 51.3337C259.242 51.1663 259.343 50.9361 259.343 50.6432C259.343 50.1996 259.025 49.9024 258.384 49.7518L257.363 49.509C256.673 49.3458 256.141 49.0612 255.773 48.6553C255.405 48.2493 255.22 47.7639 255.22 47.2031C255.22 46.5125 255.497 45.9183 256.049 45.4202C256.602 44.9222 257.275 44.6753 258.079 44.6753C259.213 44.6878 260.042 45.0436 260.561 45.7467C260.833 46.1024 260.992 46.4665 261.046 46.8348L259.535 47.2575C259.46 46.9227 259.301 46.6506 259.058 46.4456C258.815 46.2405 258.489 46.1359 258.079 46.1359C257.778 46.1359 257.518 46.2238 257.3 46.3953C257.083 46.546 256.974 46.7636 256.974 47.044C256.974 47.496 257.246 47.7806 257.786 47.8894L258.891 48.1154C259.615 48.2786 260.18 48.5758 260.577 49.0068C260.979 49.463 261.176 49.9736 261.176 50.5469C261.176 51.2291 260.921 51.8192 260.406 52.3172C259.891 52.8152 259.163 53.0621 258.225 53.0621H258.221Z" fill="black"/>
<path d="M124.584 0C121.395 0 118.729 2.73702 118.729 5.91766C118.729 9.0983 121.395 11.7725 124.584 11.7725C127.773 11.7725 130.502 9.10667 130.502 5.91766C130.502 2.72865 127.84 0 124.584 0ZM124.618 16.2129C123.157 16.2129 121.83 16.803 120.876 17.7614C119.918 18.7197 119.328 20.0464 119.328 21.5028V53.2422H129.912V21.5028C129.912 18.5858 127.539 16.2129 124.618 16.2129ZM145.074 26.7257C145.074 24.7253 146.995 23.6916 149.368 23.6916C152.105 23.6916 154.181 25.0977 155.286 27.4665L163.434 23.0262C160.546 17.9246 155.361 15.1792 149.368 15.1792C141.739 15.1792 135.302 19.3977 135.302 26.9517C135.302 39.984 154.403 37.021 154.403 42.428C154.403 44.575 152.331 45.6087 149.293 45.6087C145.589 45.6087 143.078 43.8342 142.036 40.8001L133.741 45.4664C136.407 51.1664 141.889 54.2759 149.293 54.2759C157.215 54.2759 164.175 50.4257 164.175 42.428C164.175 28.8057 145.074 32.2082 145.074 26.7299V26.7257ZM113.339 34.715C113.339 35.0498 113.314 53.238 113.314 53.238H103.906V50.4675C95.5147 57.3268 83.4701 54.096 78.0756 46.1653C80.2225 43.3697 82.1644 40.4401 84.1648 37.5776C85.4036 41.7501 89.2664 44.801 93.8365 44.801C102.763 44.8637 107.283 33.7608 100.968 27.5879C98.168 24.7044 93.5728 23.8129 89.8942 25.4326C84.6043 27.726 79.7705 37.0963 75.8073 42.1225C74.1709 44.3699 72.4341 46.5545 70.4923 48.5006C62.888 56.0964 50.5254 56.0922 42.9253 48.5006C42.193 47.7682 41.5317 46.9897 40.9416 46.1779C43.0886 43.3739 45.0388 40.4318 47.0434 37.565C49.0104 44.7675 58.6277 47.2618 63.8464 41.8463C69.6176 35.9412 74.0872 26.8178 80.0593 20.9336C84.3741 16.5979 90.7563 14.4719 96.8037 15.447C106.107 16.8239 113.385 25.0726 113.339 34.715ZM68.6174 19.2554L62.8169 26.6881C58.8704 23.6832 53.1829 23.9845 49.5796 27.5879C43.9005 33.3716 39.4015 42.5159 33.3667 48.5047C25.7666 56.0964 13.3998 56.1006 5.79975 48.5047C-11.2125 30.237 12.8055 5.05554 31.4876 19.3517L25.7331 26.7215C21.7783 23.6832 16.0782 23.9636 12.454 27.5879C3.35987 37.3516 16.9404 50.953 26.725 41.8463C33.2621 35.2214 37.6773 24.8718 45.1894 18.9959C51.9943 13.8651 61.9255 14.0743 68.6216 19.2596L68.6174 19.2554Z" fill="url(#paint0_linear_3_1332)"/>
<path d="M183.388 0.401855H181.743V53.2381H183.388V0.401855Z" fill="black"/>
<defs>
<linearGradient id="paint0_linear_3_1332" x1="77.0168" y1="58.5028" x2="92.0829" y2="-1.56939" gradientUnits="userSpaceOnUse">
<stop stop-color="#D5007F"/>
<stop offset="0.59" stop-color="#55337F"/>
<stop offset="1" stop-color="#00557F"/>
</linearGradient>
</defs>
</svg>
