<svg xmlns="http://www.w3.org/2000/svg" xmlns:xlink="http://www.w3.org/1999/xlink" viewBox="-24 -20 167 146"><g fill="#FFF" fill-rule="evenodd"><path d="M22.843.32l.009 22.748L6.714.326H0V105.75h118.73v-6.28H6.28V10.397L23.716 34.44h5.417V6.6h83.317v78.961l6.28-.001V.32z"/><path d="M27.19 51.37h4.953l1.167 2.885h2.46l-4.751-11.648h-2.573l-4.713 11.648h2.329l1.128-2.884zm2.423-6.136h.074l1.756 4.36h-3.55l1.72-4.36zM45.369 54.254V42.61h-2.221v5.064c-.367-1-1.366-1.794-2.807-1.794-2.423 0-3.68 1.906-3.68 4.307 0 2.404 1.257 4.29 3.68 4.29 1.44 0 2.44-.794 2.807-1.774v1.552h2.22zm-4.365-1.514c-1.385 0-2.105-1.018-2.105-2.554 0-1.552.72-2.568 2.105-2.568 1.26 0 2.165.922 2.165 2.403v.313c0 1.5-.906 2.406-2.165 2.406zM50.448 49.634C48.6 50 47.342 50.65 47.342 52.2c0 1.407 1.035 2.258 2.736 2.258 1.203 0 2.31-.499 2.774-1.444.203.887.795 1.424 1.72 1.424.739 0 1.18-.239 1.534-.516v-1.185c-.241.11-.464.166-.686.166-.35 0-.572-.202-.572-.625v-3.257c0-2.145-1.386-3.141-3.493-3.141-2.163 0-3.44 1.163-3.719 2.828l2.015.185c.186-.797.686-1.35 1.61-1.35.943 0 1.423.553 1.423 1.46v.185l-2.236.445zm2.236 1.089c0 1.312-.887 2.2-2.05 2.2-.705 0-1.13-.332-1.13-.888 0-.812.685-.979 1.646-1.182l1.534-.333v.203zM32.298 67.711h-6.156v-9.726h-2.311v11.649h8.467zM42.219 65.567c0-2.533-1.774-4.308-4.307-4.308-2.513 0-4.291 1.775-4.291 4.308 0 2.532 1.778 4.29 4.291 4.29 2.533 0 4.307-1.758 4.307-4.29m-6.36 0c0-1.555.703-2.625 2.053-2.625 1.369 0 2.072 1.07 2.072 2.625 0 1.532-.703 2.606-2.072 2.606-1.35 0-2.053-1.074-2.053-2.606M48.615 69.634l3.218-8.153H49.67l-2.144 5.695h-.077l-2.16-5.695h-2.331l3.218 8.153zM60.808 66.972l-1.792-.186c-.315.927-.963 1.387-2.053 1.387-1.202 0-2.145-.849-2.218-2.051h6.12v-.796c0-2.219-1.37-4.07-4.034-4.07-2.439 0-4.27 1.851-4.27 4.422 0 2.57 1.813 4.178 4.326 4.178 2.09 0 3.496-1.072 3.92-2.884m-3.992-4.087c1.238 0 1.813.905 1.886 1.85h-3.92c.204-1.019.813-1.85 2.034-1.85M62.91 69.635h2.22v-11.65h-2.22zM75.87 69.302V68.12a1.65 1.65 0 01-.684.165c-.35 0-.573-.203-.573-.629v-3.254c0-2.146-1.386-3.142-3.493-3.142-2.166 0-3.44 1.16-3.716 2.826l2.013.186c.186-.795.685-1.351 1.609-1.351.943 0 1.423.556 1.423 1.463v.184l-2.237.444c-1.847.368-3.105 1.02-3.105 2.569 0 1.407 1.035 2.255 2.735 2.255 1.201 0 2.313-.499 2.774-1.44.205.885.796 1.424 1.72 1.424.738 0 1.181-.24 1.535-.518zm-3.421-3.2c0 1.311-.888 2.2-2.05 2.2-.706 0-1.128-.333-1.128-.889 0-.81.683-.978 1.646-1.18l1.532-.333v.201zM85.184 66.306l-1.869-.167c-.164 1.238-.849 2.015-2.069 2.015s-2.071-.903-2.071-2.586c0-1.704.85-2.608 2.071-2.608 1.22 0 1.905.757 2.07 1.978l1.868-.13c-.185-1.96-1.515-3.55-3.938-3.55-2.514 0-4.308 1.721-4.308 4.31 0 2.586 1.794 4.287 4.308 4.287 2.423 0 3.753-1.589 3.938-3.549M94.984 65.326c0-2.219-1.369-4.068-4.031-4.068-2.441 0-4.271 1.849-4.271 4.422 0 2.569 1.812 4.177 4.325 4.177 2.093 0 3.496-1.073 3.92-2.885l-1.792-.186c-.315.926-.961 1.389-2.053 1.389-1.201 0-2.147-.853-2.218-2.052h6.12v-.797zm-6.083-.592c.202-1.016.814-1.847 2.033-1.847 1.24 0 1.814.904 1.886 1.847h-3.919zM23.831 85.015h2.312v-11.65H23.83zM42.332 83.72c-1.126 0-1.867-.5-1.998-1.48l-1.92.075c.148 1.997 1.771 2.918 3.9 2.918 2.106 0 3.55-.921 3.55-2.584 0-1.536-1.018-2.258-2.735-2.535l-1.556-.26c-.592-.09-.888-.349-.888-.796 0-.552.521-.903 1.314-.903 1.165 0 1.793.461 1.942 1.386l1.829-.077c-.148-1.809-1.498-2.827-3.752-2.827-2.071 0-3.386 1.073-3.386 2.625 0 1.518.964 2.164 2.7 2.443l1.297.22c.81.13 1.181.372 1.181.926 0 .59-.666.869-1.478.869M73.532 85.014v-7.941h-2.218v4.151c0 1.386-.666 2.275-1.756 2.275-1.09 0-1.554-.741-1.554-1.98v-4.446h-2.218v4.89c0 1.814.741 3.271 2.904 3.271 1.238 0 2.2-.61 2.624-1.552v1.332h2.218zM90.461 80.705c0-2.22-1.367-4.068-4.03-4.068-2.44 0-4.27 1.849-4.27 4.421 0 2.57 1.81 4.178 4.325 4.178 2.087 0 3.494-1.073 3.92-2.884l-1.792-.186c-.318.923-.963 1.387-2.053 1.387-1.202 0-2.147-.852-2.22-2.052h6.12v-.796zm-6.083-.592c.203-1.017.814-1.849 2.035-1.849 1.238 0 1.813.906 1.883 1.849h-3.918zM52.688 83.091c-.48.222-.945.388-1.388.388-.666 0-.98-.314-.98-1.018v-4.029h2.218V77.16H50.32v-2.256h-1.348l-.26 1.109c-.184.758-.406 1.165-1.202 1.295l-.555.092v1.032h1.166v4.527c0 1.741 1.053 2.295 2.311 2.295 1 0 1.664-.26 2.256-.703v-1.46zM54.487 75.425h2.288v-2.087h-2.288zM56.758 77.502h-2.231l-.002 7.548h2.231zM64.038 83.091c-.48.222-.946.388-1.388.388-.666 0-.98-.314-.98-1.018v-4.029h2.219V77.16h-2.22v-2.256h-1.348l-.26 1.109c-.184.758-.404 1.165-1.202 1.295l-.555.092v1.032h1.166v4.527c0 1.741 1.055 2.295 2.311 2.295 1 0 1.664-.26 2.257-.703v-1.46zM80.902 83.091c-.48.222-.944.388-1.387.388-.666 0-.98-.314-.98-1.018v-4.029h2.218V77.16h-2.218v-2.256h-1.347l-.263 1.109c-.182.758-.403 1.165-1.201 1.295l-.555.092v1.032h1.167v4.527c0 1.741 1.053 2.295 2.311 2.295.997 0 1.663-.26 2.255-.703v-1.46zM36.567 85.038v-5.083c0-1.812-.797-3.292-2.98-3.292-1.216 0-2.254.627-2.658 1.552v-1.33H28.71v8.153h2.22v-4.365c0-1.366.7-2.253 1.827-2.253 1.093 0 1.59.72 1.59 1.98v4.638h2.22z"/></g>
</svg>
