<svg xmlns="http://www.w3.org/2000/svg" viewBox="0 0 423.99 121.37">
  <defs>
    <style>
      .logo-cls-4{fill:#fff;opacity:0.15}
    </style>
    <linearGradient id="logo-linear-gradient" x1="36.33" y1="95.43" x2="66.22" y2="84.56" gradientUnits="userSpaceOnUse">
      <stop offset="0" stop-color="#fff"></stop>
      <stop offset=".41" stop-color="#fff" stop-opacity=".7"></stop>
      <stop offset=".87" stop-color="#fff" stop-opacity=".15"></stop>
    </linearGradient>
  </defs>
  <g style="isolation:isolate">
      <path d="M143.8 10.69h9.2c4.6 0 7.88 2.38 7.88 6.59a6 6 0 0 1-3.1 5.47v.07a6 6 0 0 1 4.14 6c0 5.12-4.1 7.42-8.81 7.42h-9.31zm9.2 10.44a3 3 0 0 0 3.16-3.27 2.94 2.94 0 0 0-3.23-3.17h-4.43v6.44zm.47 11.12a3.45 3.45 0 0 0 3.7-3.7 3.46 3.46 0 0 0-3.7-3.67h-5v7.37zm20.75-14.79c5.29 0 8.14 3.85 8.14 8.71 0 .54-.11 1.76-.11 1.76h-12.67a5.22 5.22 0 0 0 5.51 4.86 9.08 9.08 0 0 0 5.29-2l1.76 3.27a11.44 11.44 0 0 1-7.38 2.63 9.41 9.41 0 0 1-9.86-9.61c0-5.66 3.85-9.62 9.32-9.62zm3.53 7.34c-.07-2.48-1.62-3.81-3.63-3.81a4.29 4.29 0 0 0-4.4 3.81zm8.39-6.91h4.39V20a11.79 11.79 0 0 1-.07 1.26h.07a7.12 7.12 0 0 1 6.52-3.82c4.06 0 6.37 2.12 6.37 7v11.81h-4.54V25.38c0-2.23-.57-3.74-2.91-3.74a5.05 5.05 0 0 0-4.97 3.74 7.49 7.49 0 0 0-.33 2.45v8.42h-4.57zm22.07 0h4.39V20a11.79 11.79 0 0 1-.07 1.26h.07a7.12 7.12 0 0 1 6.51-3.82c4.07 0 6.38 2.12 6.38 7v11.81H221V25.38c0-2.23-.58-3.74-2.92-3.74a5.07 5.07 0 0 0-4.93 3.74 7.77 7.77 0 0 0-.32 2.45v8.42h-4.57zm30.09-.43c5.29 0 8.14 3.85 8.14 8.71 0 .54-.11 1.76-.11 1.76h-12.67a5.22 5.22 0 0 0 5.51 4.86 9.08 9.08 0 0 0 5.29-2l1.76 3.27a11.47 11.47 0 0 1-7.38 2.63 9.41 9.41 0 0 1-9.84-9.62c0-5.65 3.83-9.61 9.3-9.61zm3.53 7.34c-.07-2.48-1.62-3.81-3.64-3.81a4.27 4.27 0 0 0-4.39 3.81zm9.17-2.98h-2.37v-3.64h2.48v-5.29h4.46v5.29h4.18v3.64h-4.18v7.12c0 3 2.38 3.46 3.64 3.46a4.41 4.41 0 0 0 .83-.07v4a7.79 7.79 0 0 1-1.41.11c-2.55 0-7.63-.76-7.63-6.91zm13.58 0h-2.37v-3.64h2.48v-5.29h4.46v5.29h4.18v3.64h-4.18v7.12c0 3 2.38 3.46 3.64 3.46a4.41 4.41 0 0 0 .83-.07v4a7.79 7.79 0 0 1-1.41.11c-2.55 0-7.63-.76-7.63-6.91zm22.25-11.13h4.64v25.56h-4.64zm10.4 7.2h4.4V20a10.34 10.34 0 0 1-.08 1.26h.08a7.1 7.1 0 0 1 6.51-3.82c4.07 0 6.37 2.12 6.37 7v11.81H310V25.38c0-2.23-.58-3.74-2.92-3.74a5.05 5.05 0 0 0-4.93 3.74 7.77 7.77 0 0 0-.32 2.45v8.42h-4.58zm22.61 12.89a7.71 7.71 0 0 0 5 2c1.29 0 2.41-.57 2.41-1.65 0-2.74-8.93-2.38-8.93-8.28 0-3.42 3.06-5.4 7-5.4a8.77 8.77 0 0 1 6.15 2.09l-1.69 3.38a7 7 0 0 0-4.5-1.58c-1.18 0-2.34.5-2.34 1.65 0 2.59 8.93 2.27 8.93 8.17 0 3.06-2.66 5.51-7 5.51a10.28 10.28 0 0 1-7.13-2.7zm16.53-8.96H334v-3.64h2.48v-5.29h4.47v5.29h4.17v3.64h-4.17v7.12c0 3 2.37 3.46 3.63 3.46a4.28 4.28 0 0 0 .83-.07v4a7.73 7.73 0 0 1-1.4.11c-2.56 0-7.63-.76-7.63-6.91zm12.78-11.13h4.53v4.07h-4.53zm0 7.2h4.57v18.36h-4.57zm10.4 3.93h-2.38v-3.64h2.49v-5.29h4.46v5.29h4.18v3.64h-4.18v7.12c0 3 2.38 3.46 3.64 3.46a4.23 4.23 0 0 0 .82-.07v4a7.73 7.73 0 0 1-1.4.11c-2.56 0-7.63-.76-7.63-6.91zm12.53-3.93h4.57v10.87c0 2.23.58 3.75 2.84 3.75 3.31 0 5.15-2.92 5.15-6.19v-8.43h4.57v18.36h-4.39v-2.09a11.79 11.79 0 0 1 .07-1.29h-.07a7.09 7.09 0 0 1-6.37 3.81c-3.92 0-6.37-2-6.37-7zm22.97 3.93h-2.38v-3.64h2.48v-5.29h4.47v5.29h4.17v3.64h-4.17v7.12c0 3 2.37 3.46 3.63 3.46a4.28 4.28 0 0 0 .83-.07v4a7.73 7.73 0 0 1-1.4.11c-2.56 0-7.63-.76-7.63-6.91zm20.8-4.36c5.29 0 8.14 3.85 8.14 8.71 0 .54-.11 1.76-.11 1.76h-12.67a5.22 5.22 0 0 0 5.51 4.86 9.08 9.08 0 0 0 5.29-2l1.76 3.27a11.47 11.47 0 0 1-7.38 2.63 9.41 9.41 0 0 1-9.86-9.61c0-5.66 3.85-9.62 9.32-9.62zm3.53 7.34c-.07-2.48-1.62-3.81-3.64-3.81a4.28 4.28 0 0 0-4.39 3.81zM144 56.81h-2.27v-3.64H144v-.83c0-6 4.93-6.8 7.49-6.8a9.79 9.79 0 0 1 1.55.11v3.89a5.31 5.31 0 0 0-.94-.08c-1.3 0-3.53.33-3.53 3v.72h3.93v3.64h-3.93v14.42H144zm20.29-4.36c5.61 0 10.11 4 10.11 9.61s-4.5 9.61-10.08 9.61-10.11-4-10.11-9.61 4.5-9.61 10.08-9.61zm0 15.34a5.73 5.73 0 1 0-5.47-5.73 5.47 5.47 0 0 0 5.5 5.73zm13.79-14.91h4.39v3.17a12.84 12.84 0 0 1-.07 1.3h.07a6.32 6.32 0 0 1 5.83-4.72 5.46 5.46 0 0 1 .83.07v4.5a8.15 8.15 0 0 0-1.08-.07A5.21 5.21 0 0 0 183 61a10.12 10.12 0 0 0-.39 3v7.27h-4.57zm23.61-7.2h9.86c4.79 0 8.14 3.35 8.14 8.32s-3.35 8.42-8.14 8.42h-5.22v8.82h-4.64zm9 12.71c2.7 0 4.28-1.73 4.28-4.39a4 4 0 0 0-4.21-4.32h-4.43v8.71zm12.13-5.51h4.58v10.87c0 2.24.57 3.75 2.84 3.75 3.31 0 5.15-2.92 5.15-6.19v-8.43H240v18.36h-4.39v-2.09a11.79 11.79 0 0 1 .07-1.29h-.07a7.07 7.07 0 0 1-6.38 3.81c-3.92 0-6.37-2-6.37-7zm22.18-7.2h4.57v7.89c0 .9-.07 1.55-.07 1.55h.07a6.46 6.46 0 0 1 5.51-2.67c5 0 8.13 3.93 8.13 9.61s-3.56 9.61-8.42 9.61a6.49 6.49 0 0 1-5.47-2.73h-.07a10.88 10.88 0 0 1 .07 1.26v1H245zm9 22.14c2.52 0 4.61-2 4.61-5.69s-1.88-5.75-4.58-5.75c-2.37 0-4.6 1.72-4.6 5.79 0 2.83 1.51 5.65 4.57 5.65zm12.74-22.14h4.54v19.15c0 2 .68 2.52 1.87 2.52h.68v4a10.16 10.16 0 0 1-1.44.11c-2.52 0-5.65-.65-5.65-5.9zm10.48 0h4.53v4.07h-4.53zm0 7.2h4.57v18.36h-4.57zm18.25-.43a9.35 9.35 0 0 1 7.06 2.74l-2 3.13a7.21 7.21 0 0 0-4.79-2 5.45 5.45 0 0 0-5.6 5.68 5.59 5.59 0 0 0 5.73 5.76 8.47 8.47 0 0 0 5.4-2.34l1.73 3.27a10.47 10.47 0 0 1-7.56 3c-6.08 0-10-4.28-10-9.61s3.95-9.63 10.03-9.63zm20.45-6.77h9.86c4.79 0 8.14 3.35 8.14 8.32s-3.35 8.42-8.14 8.42h-5.22v8.82h-4.64zm9 12.71c2.7 0 4.28-1.73 4.28-4.39a4 4 0 0 0-4.2-4.32h-4.43v8.71zM346 52.45c5.62 0 10.12 4 10.12 9.61s-4.5 9.61-10.08 9.61-10.12-4-10.12-9.61 4.51-9.61 10.08-9.61zm0 15.34a5.73 5.73 0 1 0-5.47-5.73 5.46 5.46 0 0 0 5.52 5.73zm13.55-22.11h4.54v19.15c0 2 .68 2.52 1.87 2.52h.68v4a10.16 10.16 0 0 1-1.44.11c-2.52 0-5.65-.65-5.65-5.9zm10.45 0h4.53v4.07H370zm0 7.2h4.57v18.36H370zm18.28-.43a9.31 9.31 0 0 1 7.05 2.74l-2 3.13a7.21 7.21 0 0 0-4.79-2A5.45 5.45 0 0 0 383 62a5.59 5.59 0 0 0 5.72 5.76 8.43 8.43 0 0 0 5.4-2.34l1.77 3.24a10.47 10.47 0 0 1-7.56 3c-6.09 0-10-4.28-10-9.61s3.86-9.6 9.95-9.6zm10.01 21.74a4 4 0 0 0 2 .76 3.48 3.48 0 0 0 3.17-2.38l.68-1.62-7.74-18.07h5.15l3.85 10.59a22.13 22.13 0 0 1 .68 2.48h.08a22.78 22.78 0 0 1 .61-2.41l3.6-10.66h5L407.21 74a6.86 6.86 0 0 1-6.62 4.79 7 7 0 0 1-3.81-1.19z"></path>
      <path d="M155.25 79.72c6.05 0 9.11 3.27 9.11 3.27L163 84.83a11.93 11.93 0 0 0-7.68-2.83c-5.94 0-10.18 4.61-10.18 10.58s4.24 11 10.26 11a11.81 11.81 0 0 0 8.2-3.38l1.4 1.8a13.49 13.49 0 0 1-9.68 3.92c-7.49 0-12.81-5.86-12.81-13.24a12.55 12.55 0 0 1 12.74-12.96zm24.09 14.54h1v-.47c0-3.49-1.9-4.68-4.5-4.68a8.83 8.83 0 0 0-5.11 1.73L169.58 89a10.39 10.39 0 0 1 6.42-2.09c4.36 0 6.77 2.42 6.77 7v11.59h-2.34v-2a14.65 14.65 0 0 1 .07-1.51h-.07a6.54 6.54 0 0 1-6 3.92c-3 0-6.15-1.76-6.15-5.36-.03-6.15 7.92-6.29 11.06-6.29zm-4.54 9.54c3.46 0 5.54-3.6 5.54-6.73v-.8h-1c-2.84 0-8.53.11-8.53 4.11-.04 1.69 1.29 3.42 3.99 3.42zm13.64-16.45h2.42v2.7a13.17 13.17 0 0 1-.08 1.44h.08a7.4 7.4 0 0 1 6.55-4.58c3.35 0 5.07 1.55 5.61 4.54h.07a7.37 7.37 0 0 1 6.66-4.54c4.4 0 6 2.56 6 7v11.52h-2.45V94.55c0-3-.61-5.4-3.93-5.4-2.77 0-5 2.44-5.72 5.11a8.66 8.66 0 0 0-.32 2.63v8.56h-2.43v-10.9c0-2.74-.4-5.4-3.82-5.4-3 0-5.18 2.55-5.94 5.32a10.63 10.63 0 0 0-.25 2.42v8.56h-2.45zm32.98-7.2h2.45v8.78c0 .83-.07 1.48-.07 1.48h.07a6.55 6.55 0 0 1 6.15-3.5c4.86 0 7.89 3.89 7.89 9.51s-3.42 9.46-8.18 9.46a6.6 6.6 0 0 1-5.93-3.52h-.08a12.51 12.51 0 0 1 .08 1.47v1.62h-2.38zm8.14 23.58c3.2 0 5.83-2.7 5.83-7.31 0-4.43-2.34-7.27-5.73-7.27-3 0-5.86 2.16-5.86 7.3 0 3.64 1.87 7.28 5.76 7.28zm13.06-16.38H245V92c.87-2.74 2.88-4.82 5.73-4.82a4.83 4.83 0 0 1 1 .11v2.41a5.56 5.56 0 0 0-.9-.08c-2.56 0-4.46 2-5.26 4.68a12 12 0 0 0-.5 3.53v7.63h-2.45zm12.75-7.2h2.55v3.06h-2.55zm.07 7.2h2.45v18.1h-2.45zm15.3-.44a6.39 6.39 0 0 1 5.9 3.42h.07a13.32 13.32 0 0 1-.07-1.36v-8.82h2.45v25.3h-2.38v-1.91a10.28 10.28 0 0 1 .07-1.29h-.07a6.54 6.54 0 0 1-6.23 3.63c-4.85 0-7.88-3.88-7.88-9.5s3.4-9.47 8.14-9.47zm.11 16.78c3 0 5.86-2.16 5.86-7.31 0-3.67-1.87-7.27-5.76-7.27-3.2 0-5.83 2.7-5.83 7.27s2.34 7.31 5.73 7.31zm20.41 7.13c3.52 0 6.33-1.66 6.33-5.69v-1.66a12.76 12.76 0 0 1 .07-1.29h-.07a6 6 0 0 1-5.72 3.16c-4.86 0-8.06-3.85-8.06-9.28s3-9.15 7.84-9.15 6 3 6 3h.07a3.78 3.78 0 0 1 0-.61v-2H300V105c0 5.76-4.25 8-8.67 8a13.25 13.25 0 0 1-5.94-1.44l.93-2a11.11 11.11 0 0 0 4.94 1.26zm6.37-14.76c0-5.29-2.52-6.91-5.73-6.91-3.52 0-5.57 2.55-5.57 6.87s2.34 7.13 5.94 7.13c2.84 0 5.36-1.76 5.36-7.09zm15.98-9.15c5 0 7.56 3.86 7.56 8.36 0 .43-.07 1.26-.07 1.26h-13.89c.1 4.64 3.27 7.16 7 7.16a8.39 8.39 0 0 0 5.51-2.2l1.12 1.87a10.39 10.39 0 0 1-6.7 2.52 9.14 9.14 0 0 1-9.46-9.46c.01-5.94 4.04-9.51 8.93-9.51zm5.08 7.6c-.15-3.78-2.45-5.54-5.15-5.54a6.14 6.14 0 0 0-6.23 5.54z" fill="#999"></path>
      <path d="M60.69 0a60.69 60.69 0 1 0 60.68 60.69A60.69 60.69 0 0 0 60.69 0zm.05 95.36a34.68 34.68 0 1 1 34.68-34.67 34.68 34.68 0 0 1-34.68 34.67z" style="mix-blend-mode:overlay" fill="#06dea7"></path>
      <path class="logo-cls-4" d="M60.76 26a34.67 34.67 0 0 1 34.67 34.67V62c3.18-28.61-16.79-56.67-19-59.66l-.06-.08.06-.2-.16.06v-.06.1A112.4 112.4 0 0 0 60.7 10.7c-12.37 8.11-28.36 21.85-33.49 41a27.73 27.73 0 0 0-1 6.42A34.67 34.67 0 0 1 60.76 26z"></path>
      <path class="logo-cls-4" d="M51.78 27.18A34.67 34.67 0 0 1 94.25 51.7c.11.42.21.85.31 1.28C90.23 24.52 63.67 2.59 60.78.28L60.7.22V0l-.14.11-.06-.06v.11a109.89 109.89 0 0 0-12.73 12.26C37.91 23.45 26 40.86 26 60.69a27.48 27.48 0 0 0 .68 6.47 34.66 34.66 0 0 1 25.1-39.98z"></path>
      <path class="logo-cls-4" d="M43.41 30.64a34.67 34.67 0 0 1 47.37 12.69c.22.38.43.77.64 1.16C79.87 18.13 48.54 3.81 45.14 2.33h-.09v-.21l-.11.14h-.08v.11a111 111 0 0 0-9.12 15.13c-6.67 13.21-13.64 33.1-8.51 52.25a27.38 27.38 0 0 0 2.32 6.08 34.68 34.68 0 0 1 13.86-45.19z"></path>
      <path class="logo-cls-4" d="M36.23 36.15a34.66 34.66 0 0 1 49 0c.31.31.61.63.91 1C68.2 14.63 34.24 8.91 30.57 8.35h-.1l-.1-.19-.07.16h-.08l.05.09a111.64 111.64 0 0 0-4.9 17c-3 14.48-4.61 35.5 5.31 52.68a27.81 27.81 0 0 0 3.82 5.26 34.66 34.66 0 0 1 1.73-47.2z"></path>
      <path class="logo-cls-4" d="M30.71 43.33a34.67 34.67 0 0 1 47.37-12.69c.39.22.76.45 1.13.69C56 14.27 21.74 17.53 18.05 18H18l-.15-.16v.18h-.15l.08.07a111.1 111.1 0 0 0-.34 17.67c.83 14.77 4.74 35.49 18.76 49.51a27 27 0 0 0 5 4.09 34.67 34.67 0 0 1-10.49-46.03z"></path>
      <path class="logo-cls-4" d="M27.25 51.69a34.67 34.67 0 0 1 42.47-24.52l1.27.38C44.17 17.07 11.9 29.1 8.45 30.45h-.09l-.19-.11v.17h-.08l.09.05a111.55 111.55 0 0 0 4.25 17.16c4.62 14.05 13.76 33.05 30.93 43a27.18 27.18 0 0 0 5.94 2.65 34.66 34.66 0 0 1-22.05-41.68z"></path>
      <path class="logo-cls-4" d="M26.06 60.67A34.68 34.68 0 0 1 60.74 26h1.32C33.45 22.84 5.39 42.82 2.41 45h-.29a1.37 1.37 0 0 0 .07.16h-.07.1a111.35 111.35 0 0 0 8.55 15.46c8.1 12.38 21.84 28.37 41 33.5a27.2 27.2 0 0 0 6.43 1 34.68 34.68 0 0 1-32.14-34.45z"></path>
      <path class="logo-cls-4" d="M27.24 69.65a34.67 34.67 0 0 1 24.52-42.47c.43-.12.86-.22 1.29-.32C24.59 31.2 2.66 57.75.34 60.65l-.06.07H.06l.11.14-.05.07h.1a111.67 111.67 0 0 0 12.26 12.73c11 9.85 28.44 21.74 48.27 21.74a27.54 27.54 0 0 0 6.47-.67 34.67 34.67 0 0 1-39.98-25.08z"></path>
      <path class="logo-cls-4" d="M30.7 78a34.69 34.69 0 0 1 12.69-47.36q.59-.33 1.17-.63C18.19 41.56 3.88 72.89 2.39 76.29v.08l-.21.06.14.1v.08h.1a110.57 110.57 0 0 0 15.13 9.13c13.21 6.66 33.1 13.64 52.26 8.51a28 28 0 0 0 6.07-2.33A34.67 34.67 0 0 1 30.7 78z"></path>
      <path class="logo-cls-4" d="M36.21 85.2a34.68 34.68 0 0 1 0-49c.31-.32.64-.62 1-.92-22.48 18-28.2 52-28.75 55.62v.09l-.18.11.16.06v.09l.1-.06a110 110 0 0 0 17 4.9c14.48 3 35.5 4.61 52.67-5.3a27.17 27.17 0 0 0 5.26-3.82 34.68 34.68 0 0 1-47.26-1.77z"></path>
      <path class="logo-cls-4" d="M43.39 90.71A34.68 34.68 0 0 1 30.7 43.34c.22-.38.46-.76.69-1.13C14.33 65.4 17.6 99.69 18 103.37v.1l-.15.15h.17v.08l.08-.07a110.21 110.21 0 0 0 17.66.33c14.77-.83 35.49-4.73 49.51-18.75a27.8 27.8 0 0 0 4.1-5 34.68 34.68 0 0 1-45.98 10.5z"></path>
      <path class="logo-cls-4" d="M51.76 94.18a34.67 34.67 0 0 1-24.52-42.47c.11-.43.24-.85.37-1.27-10.48 26.81 1.55 59.08 2.91 62.56v.09l-.11.18h.17v.08l.05-.09A111.55 111.55 0 0 0 47.85 109c14-4.63 33.05-13.76 43-30.93a28.4 28.4 0 0 0 2.65-5.94 34.67 34.67 0 0 1-41.74 22.05z"></path>
      <path class="logo-cls-4" d="M60.73 95.36a34.67 34.67 0 0 1-34.67-34.67v-1.33C22.91 88 42.88 116 45.08 119l.06.08-.06.2.16-.06v.06-.1a111.21 111.21 0 0 0 15.47-8.54c12.37-8.1 28.36-21.85 33.49-41a27.65 27.65 0 0 0 1-6.42 34.67 34.67 0 0 1-34.47 32.14z"></path>
      <path class="logo-cls-4" d="M69.71 94.19a34.69 34.69 0 0 1-42.47-24.52c-.12-.43-.21-.86-.31-1.29 4.33 28.46 30.89 50.39 33.78 52.71l.08.06v.21l.13-.11.07.06v-.11a110.77 110.77 0 0 0 12.73-12.26c9.86-11 21.74-28.44 21.74-48.26a27.48 27.48 0 0 0-.67-6.47 34.67 34.67 0 0 1-25.08 39.98z"></path>
      <path class="logo-cls-4" d="M76.51 119.3a114.35 114.35 0 0 0 9.26-15.36c6.67-13.2 13.64-33.1 8.51-52.25A27.06 27.06 0 0 0 92 45.62a34.69 34.69 0 0 1-22.27 48.57"></path>
      <path class="logo-cls-4" d="M85.26 85.21a34.66 34.66 0 0 1-49 0c-.31-.31-.61-.63-.91-1 18 22.48 51.94 28.2 55.61 28.76H91l.11.19.07-.16h.08v-.09a110.5 110.5 0 0 0 4.89-17c3-14.48 4.61-35.5-5.3-52.67A27.59 27.59 0 0 0 87 38.05a34.66 34.66 0 0 1-1.74 47.16z"></path>
      <path class="logo-cls-4" d="M90.78 78a34.68 34.68 0 0 1-47.37 12.7l-1.13-.7c23.18 17 57.47 13.79 61.16 13.38h.09l.15.15v-.17h.09l-.08-.08a111.1 111.1 0 0 0 .34-17.67c-.83-14.77-4.74-35.48-18.76-49.5A27.46 27.46 0 0 0 80.24 32a34.67 34.67 0 0 1 10.54 46z"></path>
      <path class="logo-cls-4" d="M94.24 69.67a34.67 34.67 0 0 1-42.47 24.52l-1.27-.38c26.81 10.48 59.09-1.55 62.54-2.9h.09l.19.1v-.17h.08-.09A111.55 111.55 0 0 0 109 73.57c-4.62-14-13.76-33-30.93-43A27.18 27.18 0 0 0 72.16 28a34.66 34.66 0 0 1 22.08 41.67z"></path>
      <path class="logo-cls-4" d="M95.43 60.69a34.68 34.68 0 0 1-34.68 34.68h-1.32c28.61 3.18 56.67-16.8 59.65-19h.29a1 1 0 0 1-.07-.16l.07-.05h-.1a110.57 110.57 0 0 0-8.55-15.47c-8.1-12.38-21.84-28.37-41-33.5a27.73 27.73 0 0 0-6.43-1 34.68 34.68 0 0 1 32.14 34.5z"></path>
      <path class="logo-cls-4" d="M94.25 51.72a34.67 34.67 0 0 1-24.52 42.47l-1.29.31c28.46-4.34 50.39-30.89 52.71-33.79l.06-.07h.22l-.11-.14.05-.07h-.11A112.13 112.13 0 0 0 109 47.7C98 37.85 80.57 26 60.74 26a27 27 0 0 0-6.47.68 34.67 34.67 0 0 1 39.98 25.04z"></path>
      <path class="logo-cls-4" d="M90.79 43.35a34.68 34.68 0 0 1-12.7 47.37c-.38.22-.77.43-1.16.63 26.37-11.55 40.68-42.88 42.17-46.27v-.09l.21-.06-.14-.1v-.08h-.1a111.71 111.71 0 0 0-15.07-9.1C90.8 29 70.91 22 51.75 27.14a28 28 0 0 0-6.07 2.33 34.67 34.67 0 0 1 45.11 13.88z"></path>
      <path class="logo-cls-4" d="M85.28 36.16a34.69 34.69 0 0 1 0 49.05l-1 .91c22.48-18 28.2-51.95 28.75-55.62v-.09l.18-.11-.16-.06v-.09l-.09.06a111.24 111.24 0 0 0-17-4.9c-14.48-3-35.5-4.61-52.67 5.3a28 28 0 0 0-5.27 3.82 34.69 34.69 0 0 1 47.26 1.73z"></path>
      <path class="logo-cls-4" d="M78.1 30.65A34.68 34.68 0 0 1 90.79 78c-.22.38-.46.76-.69 1.13C107.16 56 103.89 21.68 103.48 18v-.1l.15-.15h-.17v-.08l-.08.07a110.21 110.21 0 0 0-17.66-.33c-14.77.83-35.49 4.73-49.51 18.75a27.49 27.49 0 0 0-4.1 5.06A34.67 34.67 0 0 1 78.1 30.65z"></path>
      <path class="logo-cls-4" d="M69.73 27.18a34.67 34.67 0 0 1 24.52 42.47c-.11.43-.24.85-.37 1.27C104.36 44.11 92.33 11.84 91 8.38v-.09l.11-.18h-.17v-.08.1a109 109 0 0 0-17.3 4.27c-14 4.62-33 13.75-43 30.92a27.72 27.72 0 0 0-2.65 6 34.68 34.68 0 0 1 41.74-22.14z"></path>
      <path d="M69.74 94.22a36.46 36.46 0 0 1-9 1c-20.57 0-33.83-16.17-34.69-34.55a36.09 36.09 0 0 0 1.08 8.92c8.76 32.71 49.37 49.69 49.37 49.69l-4.71-17z" fill="url(#logo-linear-gradient)"></path>
  </g>
</svg>
