<svg xmlns="http://www.w3.org/2000/svg" width="134.736" height="40.762" viewBox="0 0 134.736 40.762">
  <g id="Group_3780" data-name="Group 3780" transform="translate(0 0)">
    <g id="Group_3777" data-name="Group 3777" transform="translate(0 0)">
      <rect id="Rectangle_85" data-name="Rectangle 85" width="10.19" height="10.19" rx="5.095" transform="translate(0 30.572) rotate(-90)"/>
      <rect id="Rectangle_87" data-name="Rectangle 87" width="10.19" height="10.19" transform="translate(30.571 40.762) rotate(-90)"/>
      <rect id="Rectangle_229" data-name="Rectangle 229" width="10.19" height="10.19" transform="translate(10.19 20.381) rotate(-90)"/>
      <rect id="Rectangle_231" data-name="Rectangle 231" width="10.19" height="10.19" rx="5.095" transform="translate(20.381 10.19) rotate(-90)"/>
      <rect id="Rectangle_232" data-name="Rectangle 232" width="10.19" height="10.19" rx="5.095" transform="translate(20.381 30.572) rotate(-90)"/>
      <rect id="Rectangle_230" data-name="Rectangle 230" width="10.19" height="10.19" transform="translate(10.19 40.762) rotate(-90)"/>
    </g>
    <g id="Group_3776" data-name="Group 3776" transform="translate(48.545 0)">
      <path id="Path_1292" data-name="Path 1292" d="M5.266,54.818A5.3,5.3,0,0,1,1.888,53.76,5.558,5.558,0,0,1,0,50.905l2.928-.7A2.147,2.147,0,0,0,3.715,51.5a2.2,2.2,0,0,0,1.439.541A2.542,2.542,0,0,0,6.25,51.76a1.773,1.773,0,0,0,.861-.892,2.726,2.726,0,0,0,.2-.941q.031-.547.031-1.273V36.733h3V48.654q0,.824-.006,1.446a5.871,5.871,0,0,1-.123,1.169,3.737,3.737,0,0,1-.461,1.126,4.511,4.511,0,0,1-1.895,1.839A5.723,5.723,0,0,1,5.266,54.818Zm13.755.012a5.32,5.32,0,0,1-2.436-.492,4.3,4.3,0,0,1-1.526-1.255,5.463,5.463,0,0,1-.837-1.624,8.331,8.331,0,0,1-.351-1.63q-.08-.769-.08-1.249V41.162h3v6.4a12.554,12.554,0,0,0,.086,1.384,4.991,4.991,0,0,0,.4,1.476,2.848,2.848,0,0,0,.935,1.163,2.784,2.784,0,0,0,1.679.455,3.52,3.52,0,0,0,1.12-.185,2.551,2.551,0,0,0,1-.634,3.18,3.18,0,0,0,.72-1.236,6.22,6.22,0,0,0,.271-1.993l1.759.75a7.045,7.045,0,0,1-.658,3.076,5.233,5.233,0,0,1-1.938,2.2A5.731,5.731,0,0,1,19.02,54.83Zm4.343-.381V50.327h-.357V41.162h2.977V54.449Zm11.2.369a6.685,6.685,0,0,1-4-1.107A4.592,4.592,0,0,1,28.69,50.6l3.027-.468a2.557,2.557,0,0,0,1.033,1.55,3.408,3.408,0,0,0,2.018.566,2.78,2.78,0,0,0,1.655-.424,1.36,1.36,0,0,0,.584-1.163,1.16,1.16,0,0,0-.215-.732,2.132,2.132,0,0,0-.941-.535q-.726-.258-2.227-.652a13.321,13.321,0,0,1-2.657-.953,3.478,3.478,0,0,1-1.415-1.212,3.184,3.184,0,0,1-.431-1.7,3.655,3.655,0,0,1,.652-2.165,4.165,4.165,0,0,1,1.821-1.421,6.992,6.992,0,0,1,2.756-.5,7.36,7.36,0,0,1,2.75.48,4.772,4.772,0,0,1,1.938,1.366,4.093,4.093,0,0,1,.91,2.079l-3.026.541a1.913,1.913,0,0,0-.769-1.341,3.167,3.167,0,0,0-1.753-.554,2.957,2.957,0,0,0-1.685.314,1.165,1.165,0,0,0-.64,1.052.91.91,0,0,0,.258.652,2.766,2.766,0,0,0,1.04.541q.781.271,2.331.664a11.1,11.1,0,0,1,2.541.929,3.467,3.467,0,0,1,1.378,1.249,3.429,3.429,0,0,1,.424,1.759,3.783,3.783,0,0,1-1.458,3.15A6.371,6.371,0,0,1,34.559,54.818Zm15.981-.369a12.362,12.362,0,0,1-2.577.215,5.938,5.938,0,0,1-2.258-.468,3.089,3.089,0,0,1-1.513-1.384,3.962,3.962,0,0,1-.48-1.759q-.025-.9-.025-2.03V37.471H46.64v11.38q0,.8.018,1.4a1.98,1.98,0,0,0,.252.984,1.717,1.717,0,0,0,1.415.824,9.5,9.5,0,0,0,2.215-.1ZM41.276,43.487V41.162H50.54v2.325Zm12.377-4.343V36.425h2.965v2.719Zm0,15.3V41.162h2.965V54.449Zm12.426.369a6.435,6.435,0,0,1-3.506-.917,5.978,5.978,0,0,1-2.221-2.5,8.254,8.254,0,0,1-.781-3.592,8.081,8.081,0,0,1,.806-3.623A6.044,6.044,0,0,1,62.634,41.7a6.494,6.494,0,0,1,3.482-.9,6.351,6.351,0,0,1,3.832,1.138A5.238,5.238,0,0,1,72,45.037l-2.953.8A3.254,3.254,0,0,0,67.9,44.17a2.966,2.966,0,0,0-1.821-.6,2.984,2.984,0,0,0-3.014,2.055,6.219,6.219,0,0,0-.357,2.178,5.093,5.093,0,0,0,.849,3.063,3.373,3.373,0,0,0,4.386.627,3.259,3.259,0,0,0,1.027-1.562L72,50.61a5.705,5.705,0,0,1-2.153,3.119A6.348,6.348,0,0,1,66.079,54.818Zm14.062,0a7.006,7.006,0,0,1-3.543-.873,6.178,6.178,0,0,1-2.381-2.424,7.265,7.265,0,0,1-.855-3.568A8.081,8.081,0,0,1,74.2,44.17a6.12,6.12,0,0,1,2.325-2.491,6.607,6.607,0,0,1,3.445-.886,6.178,6.178,0,0,1,3.512.966,5.725,5.725,0,0,1,2.147,2.725,9.319,9.319,0,0,1,.529,4.146h-2.94V47.547a5.347,5.347,0,0,0-.763-3.162,2.765,2.765,0,0,0-2.362-1,3.232,3.232,0,0,0-2.707,1.126,5.238,5.238,0,0,0-.886,3.291,4.887,4.887,0,0,0,.886,3.125,3.113,3.113,0,0,0,2.584,1.107,3.546,3.546,0,0,0,1.888-.486,3.176,3.176,0,0,0,1.224-1.409l2.928.886a5.946,5.946,0,0,1-2.356,2.793A6.493,6.493,0,0,1,80.141,54.818Zm-4.577-6.188V46.39h9.141v2.239ZM1.968,76.817V59.1H4.933V74.037h7.825v2.78Zm16.6.369a5,5,0,0,1-2.436-.547,3.745,3.745,0,0,1-1.507-1.458,4.03,4.03,0,0,1-.511-2.005,4.462,4.462,0,0,1,.32-1.729,3.456,3.456,0,0,1,.984-1.329,5.251,5.251,0,0,1,1.722-.917,16.244,16.244,0,0,1,1.876-.468q1.076-.209,2.338-.388t2.639-.388l-1.058.6a2.8,2.8,0,0,0-.615-2.03A2.853,2.853,0,0,0,20.2,65.88a3.833,3.833,0,0,0-1.735.418A2.321,2.321,0,0,0,17.3,67.738l-2.707-.849a5.018,5.018,0,0,1,1.876-2.707A6.157,6.157,0,0,1,20.2,63.161a7.851,7.851,0,0,1,3.119.578,3.868,3.868,0,0,1,2,1.895,4.036,4.036,0,0,1,.431,1.433,15.94,15.94,0,0,1,.074,1.593v8.157h-2.6V73.939l.431.468a5.932,5.932,0,0,1-2.1,2.11A6.074,6.074,0,0,1,18.565,77.187Zm.591-2.362a3.817,3.817,0,0,0,1.722-.357,3.428,3.428,0,0,0,1.138-.874,3.071,3.071,0,0,0,.572-.972,3.8,3.8,0,0,0,.265-1.3q.031-.732.031-1.187l.91.271q-1.341.209-2.3.369t-1.649.3a11.323,11.323,0,0,0-1.218.314,3.769,3.769,0,0,0-.873.431,1.834,1.834,0,0,0-.547.566,1.438,1.438,0,0,0-.191.75,1.546,1.546,0,0,0,.246.867,1.688,1.688,0,0,0,.72.6A2.768,2.768,0,0,0,19.156,74.824Zm16.252,2.362a5.54,5.54,0,0,1-3.26-.923,5.644,5.644,0,0,1-1.981-2.516,10,10,0,0,1,0-7.166,5.692,5.692,0,0,1,1.95-2.5,5.338,5.338,0,0,1,3.18-.917,5.779,5.779,0,0,1,3.266.917,6.11,6.11,0,0,1,2.147,2.5,8.18,8.18,0,0,1,.763,3.6,8.274,8.274,0,0,1-.75,3.58,6.107,6.107,0,0,1-2.116,2.51A5.576,5.576,0,0,1,35.408,77.187ZM29,76.817V59.1h2.99v8.391h-.369v9.326Zm5.955-2.288a3.033,3.033,0,0,0,1.907-.578,3.4,3.4,0,0,0,1.113-1.569,6.38,6.38,0,0,0,.363-2.208,6.247,6.247,0,0,0-.369-2.2A3.41,3.41,0,0,0,36.822,66.4a3.179,3.179,0,0,0-1.968-.584,2.947,2.947,0,0,0-1.845.547,3.167,3.167,0,0,0-1.052,1.526,7.845,7.845,0,0,0,0,4.558,2.886,2.886,0,0,0,3,2.079Z" transform="translate(0 -36.425)"/>
    </g>
  </g>
</svg>
