<svg width="100%" height="100%" viewBox="0 0 159 79" fill="none" xmlns="http://www.w3.org/2000/svg">
<path d="M159 0H79.5V79H159V0Z" fill="white"/>
<path d="M79.5 0H0V79H79.5V0Z" fill="#DC6A5F"/>
<path d="M27.6775 44.8476C27.8841 43.5759 28.3451 42.4421 28.6949 41.0632C26.8985 41.0632 25.0862 41.0632 23.1944 41.0632C21.4298 47.8047 19.6651 54.5613 17.9006 61.3027C17.7098 61.1495 17.6621 61.027 17.6144 60.8891C16.9308 58.2997 16.2472 55.7104 15.5636 53.1058C14.5621 49.3061 13.5764 45.4911 12.5589 41.7067C12.4954 41.4616 12.1933 41.1092 11.9867 41.0939C10.2379 41.0479 8.50511 41.0632 6.69284 41.0632C6.75638 41.2777 6.78818 41.4156 6.83588 41.5535C7.74204 43.6372 8.10768 45.7975 8.10768 48.0497C8.10768 53.734 8.10768 59.4335 8.10768 65.1178C8.10768 67.2323 7.75794 69.3008 7.01078 71.2922C6.86768 71.6602 6.77228 71.9973 6.64514 72.4568C8.21898 72.4568 9.71331 72.4568 11.1918 72.4568C11.2077 72.3034 11.2236 72.3344 11.2236 72.3186C11.1759 72.1961 11.1282 72.0737 11.0646 71.9512C9.53848 69.4535 9.01384 66.7418 9.02974 63.8767C9.06154 58.9433 9.01384 54.0251 9.01384 49.0916C9.01384 48.8924 9.04564 48.6933 9.06154 48.4788C9.23638 48.7239 9.29998 48.969 9.36358 49.2142C11.2554 56.4305 13.1313 63.6469 15.0389 70.8478C15.1025 71.0934 15.4206 71.2771 15.6113 71.4917C15.8021 71.2771 16.12 71.0934 16.1836 70.8327C18.0595 63.7695 19.9195 56.7064 21.7795 49.6432C21.8908 49.2296 22.018 48.8312 22.1292 48.4175C22.2246 54.4235 22.2246 60.3835 22.2246 66.3587C22.2246 66.5884 22.2087 66.8491 22.161 67.0637C21.8749 68.8406 21.5888 70.5878 21.2867 72.4259C23.6077 72.4259 26.0082 72.4259 28.4405 72.4259C28.4246 72.2731 28.4405 72.15 28.4087 72.0585C27.5821 69.3923 27.3595 66.6345 27.3754 63.8767C27.3754 58.9433 27.3595 54.0098 27.3913 49.0916C27.3913 47.7127 27.4549 46.2572 27.6775 44.8476Z" fill="white"/>
<path d="M49.351 58.5425C47.0601 58.5425 44.8015 58.5425 42.3978 58.5425C43.3334 60.8343 43.8497 63.0191 43.8175 65.3414C43.7852 67.1598 43.7368 68.9472 42.8172 70.6128C42.0751 71.9571 40.849 72.568 39.4616 72.2777C38.4129 72.0637 37.6709 71.3613 37.2998 70.4752C36.6706 68.9472 36.0092 67.3889 35.7349 65.7845C34.7992 60.2232 34.8476 54.6312 35.5736 49.0393C35.8479 46.9156 36.3156 44.8224 37.5741 42.9738C39.0421 40.8348 41.4459 40.5139 43.2367 42.4237C44.6241 43.921 45.705 45.6781 46.9311 47.3128C47.0763 47.5115 47.2376 47.7253 47.3989 47.924C47.5925 47.6643 47.6248 47.4809 47.6087 47.2823C47.528 46.1975 47.4151 45.0975 47.3506 44.0127C47.1892 41.614 47.2054 41.614 44.7693 40.9418C40.2521 39.6583 36.0092 40.9723 33.1698 44.5169C31.2338 46.9309 30.2658 49.7115 29.8303 52.6756C29.1204 57.5953 29.3947 62.4385 31.5403 67.0374C32.6696 69.4818 34.3475 71.5595 37.0739 72.5226C40.607 73.7596 43.7529 72.7207 46.6568 70.7194C47.9152 69.8484 48.4314 68.8247 48.3508 67.3125C48.1733 64.4094 48.3347 61.5218 49.4155 58.7411C49.4155 58.6953 49.3672 58.5425 49.351 58.5425Z" fill="white"/>
<path d="M24.2373 7.41044C24.3725 7.6402 24.5271 7.86995 24.6816 8.09971C25.8795 9.89196 26.8262 11.7761 26.8649 13.8287C26.9421 18.1638 26.9808 22.4988 27.0195 26.8492C27.0195 26.8952 26.9615 26.9258 26.8842 27.0483C26.6524 26.7267 26.4591 26.451 26.2853 26.1752C22.3245 20.0479 18.3638 13.936 14.3837 7.80866C14.2292 7.5789 13.9007 7.2419 13.6495 7.2419C11.7561 7.18061 9.86269 7.21129 7.89196 7.21129C7.98855 7.42571 8.02724 7.5789 8.10449 7.71676C9.26373 9.7541 9.66951 11.8986 9.66951 14.1198C9.63082 19.7875 9.65016 25.4553 9.65016 31.1077C9.65016 33.2062 9.26373 35.2895 8.37499 37.2809C8.1818 37.6945 8.04652 38.1541 7.85333 38.6136C9.80473 38.6136 11.6402 38.6136 13.6109 38.6136C13.4177 38.3072 13.3017 38.0774 13.1665 37.8783C11.4856 35.5959 10.7708 33.1297 10.7708 30.4796C10.7708 24.9191 10.6741 19.3433 10.6162 13.7828C10.6162 13.6449 10.6355 13.5071 10.6548 13.1854C10.9253 13.5684 11.0799 13.7828 11.2151 13.9973C15.968 21.2887 20.7209 28.5649 25.4931 35.8563C26.034 36.6988 26.575 37.5413 27.1547 38.3685C27.2513 38.5064 27.5218 38.5676 27.7149 38.6595C27.8309 38.5064 27.9854 38.3685 28.0434 38.2C28.1014 38.0315 28.0628 37.8477 28.0628 37.6639C28.0628 30.449 28.0241 23.2188 28.082 16.0039C28.1014 14.1811 28.3333 12.3123 28.6424 10.5047C28.8356 9.4171 29.3766 8.45205 29.7823 7.22663C27.9082 7.22663 26.0727 7.22663 24.2373 7.22663C24.2179 7.36448 24.1986 7.36449 24.2373 7.41044Z" fill="black"/>
<path d="M43.556 19.9671C42.0723 18.7733 40.55 17.5948 39.1819 16.3093C37.3127 14.5645 36.1566 12.5902 36.5805 10.2027C36.7732 9.07021 37.332 8.13662 38.7387 7.69284C40.1453 7.24899 41.475 7.49383 42.6118 8.25907C43.3633 8.76415 44.0763 9.34572 44.6544 9.97318C45.695 11.0904 46.6391 12.2689 47.7182 13.5392C47.8531 13.3249 47.9687 13.233 47.9687 13.1259C47.8338 11.2894 47.6989 9.46817 47.5255 7.63162C47.5062 7.46328 47.1787 7.20304 46.9474 7.1725C45.0783 6.97348 43.1899 6.62147 41.3401 6.66742C36.831 6.80515 33.4782 9.22327 32.7845 12.575C32.2064 15.391 32.7845 18.0693 34.8078 20.3956C36.4842 22.3086 38.546 24.0075 40.4151 25.8134C41.7062 27.0684 43.1321 28.2774 44.1919 29.6548C45.7913 31.6903 46.1959 33.9401 45.1169 36.2511C44.4231 37.7203 42.9587 38.5468 41.1859 38.256C40.1839 38.0876 39.1434 37.6285 38.3533 37.0776C36.1566 35.593 34.7306 33.5881 33.2277 31.6597C33.0542 31.4302 32.8038 31.2159 32.5725 30.971C32.4376 31.124 32.3798 31.17 32.3798 31.2159C32.5533 33.3279 32.7266 35.4399 32.9386 37.5519C32.9579 37.751 33.3047 37.9958 33.5745 38.103C35.9832 38.9753 38.546 39.3273 41.1666 39.1589C45.4444 38.8835 48.4504 36.8786 49.5681 33.5881C50.3195 31.3689 50.2232 29.1498 49.4139 26.9459C48.4119 24.1146 46.0803 22.0026 43.556 19.9671Z" fill="black"/>
<path d="M138.838 44.0624C138.74 44.218 138.642 44.3736 138.545 44.5389C137.889 45.5795 137.282 46.6493 136.558 47.651C136.244 48.0886 135.756 48.5651 135.266 48.6915C134.376 48.9152 133.436 48.8957 132.457 48.9735C132.457 45.6962 132.457 42.5162 132.457 39.3361C133.436 39.1416 134.268 39.3458 134.855 40.1627C135.158 40.5808 135.471 41.0088 135.775 41.4367C135.853 41.5534 135.97 41.6506 136.166 41.8646C136.166 39.9779 136.166 38.2469 136.166 36.5158C136.068 36.4574 136 36.3894 135.931 36.331C135.873 36.4769 135.834 36.6422 135.746 36.7686C135.51 37.1187 135.246 37.4592 135.012 37.7995C134.385 38.7039 133.534 39.0054 132.457 38.7623C132.457 35.8351 132.457 32.9176 132.457 29.9515C133.045 29.9904 133.592 30.0584 134.14 30.0584C134.776 30.0584 135.305 30.2821 135.687 30.7489C136.303 31.4977 136.89 32.2757 137.487 33.044C137.644 33.2482 137.811 33.4524 137.977 33.6567C138.035 33.6372 138.084 33.608 138.143 33.5886C137.977 32.2271 137.801 30.8559 137.634 29.4944C134.6 29.4944 131.626 29.4944 128.601 29.4944C128.64 29.6889 128.669 29.8056 128.709 29.9417C129.12 31.3713 129.306 32.83 129.296 34.3082C129.296 37.7898 129.306 41.2714 129.296 44.7626C129.296 46.1241 129.149 47.4953 128.748 48.8082C128.689 49.0027 128.66 49.2362 128.611 49.4306C131.85 49.4306 135.041 49.4306 138.27 49.4306C138.515 47.5829 138.76 45.8907 139.004 44.1305C138.945 44.111 138.887 44.0819 138.838 44.0624Z" fill="black"/>
<path d="M124.53 29.6499C125.342 31.1767 125.479 32.8105 125.117 34.4638C124.471 37.4688 123.776 40.4641 123.091 43.4594C123.072 43.5372 123.033 43.615 122.984 43.7414C122.935 43.5664 122.896 43.4594 122.876 43.3524C122.338 40.9017 121.819 38.451 121.271 36.0003C120.938 34.4832 120.537 32.9564 120.703 31.3907C120.772 30.7488 120.978 30.1556 121.124 29.4749C119.431 29.4749 117.699 29.4749 116.036 29.4749C116.485 30.8364 117.033 32.1298 117.357 33.4815C118.57 38.5191 119.705 43.5663 120.88 48.6137C121.085 49.5181 121.085 49.5278 122.015 49.5083C122.093 49.5083 122.172 49.4889 122.24 49.4792C122.279 49.3625 122.309 49.275 122.338 49.1777C123.101 45.8809 123.835 42.5841 124.618 39.2971C125.215 36.7978 125.822 34.2887 126.487 31.8088C126.702 31.0114 127.114 30.2626 127.427 29.4845C126.458 29.4845 125.479 29.4845 124.501 29.4845C124.52 29.5818 124.51 29.611 124.53 29.6499Z" fill="black"/>
<path d="M108.578 44.9571C108.059 45.7643 107.54 46.5715 107.002 47.3592C106.131 48.6526 104.859 49.0611 103.293 48.8763C103.293 48.7207 103.293 48.5651 103.293 48.4095C103.293 43.9846 103.303 39.5598 103.313 35.1349C103.313 34.211 103.362 33.2677 103.469 32.3535C103.587 31.3908 103.812 30.4571 103.988 29.4846C102.51 29.4846 101.023 29.4846 99.6235 29.4846C99.809 30.8461 100.112 32.2076 100.142 33.5497C100.22 37.2258 100.201 40.9115 100.181 44.5876C100.171 45.5698 100.054 46.5617 99.917 47.544C99.8388 48.1567 99.6427 48.7693 99.4963 49.4112C102.383 49.4112 105.212 49.4112 108.05 49.4014C108.147 49.4014 108.313 49.2361 108.343 49.1292C108.431 48.7304 108.461 48.3317 108.52 47.933C108.676 46.7952 108.832 45.6573 108.989 44.5195C108.94 44.5 108.891 44.4903 108.852 44.4709C108.764 44.6362 108.676 44.8015 108.578 44.9571Z" fill="black"/>
<path d="M114.137 34.3957C114.137 33.8317 114.137 33.2482 114.215 32.6939C114.362 31.6241 114.568 30.5543 114.753 29.4846C113.315 29.4846 111.837 29.4846 110.3 29.4846C110.359 29.7763 110.418 29.893 110.437 30.0681C110.633 31.4101 110.946 32.7522 110.975 34.1039C111.054 37.6536 111.015 41.2032 110.995 44.7431C110.995 46.1241 110.839 47.5147 110.437 48.8374C110.379 49.0221 110.349 49.2263 110.31 49.4209C111.837 49.4209 113.315 49.4209 114.841 49.4209C114.303 47.6703 114.117 46.0755 114.127 44.3833C114.147 41.0573 114.137 37.7217 114.137 34.3957Z" fill="black"/>
</svg>
