<?xml version="1.0" encoding="UTF-8"?><svg id="Layer_1" xmlns="http://www.w3.org/2000/svg" viewBox="0 0 1217.16 490.08"><defs><style>.cls-1{fill:#fff;}.cls-2{fill:#1a1a1a;}</style></defs><path class="cls-2" d="M93.59,93.54V397.1H464.9c-3.42-2.05-6.16-4.1-8.21-6.84-21.89-20.52-21.89-44.46-22.57-67.72V193.93h68.41v135.44c0,8.89,.68,18.47,8.89,25.99,5.47,6.16,13.68,8.21,21.89,8.21,10.26,0,17.79-4.1,21.89-8.21,7.52-6.84,8.21-17.1,8.21-25.99V193.93h68.41v115.61c0,24.63,0,56.78-25.31,80.72l-6.84,6.84h102.61c-28.97-22.32-45.5-57.16-44.46-93.72,0-58.15,39.68-116.98,112.87-116.98,32.84,0,64.3,11.63,86.88,34.2,9.58,10.26,13.68,17.1,18.47,25.99l-57.46,28.73c-5.47-13.68-16.42-36.26-45.15-36.26-10.96-.21-21.56,3.98-29.41,11.63-15.73,15.73-15.73,40.36-15.73,48.57,0,32.15,11.63,62.93,45.83,62.93,31.47,0,41.04-28.05,43.78-35.57l58.15,28.05c-5.15,11.29-12.08,21.68-20.52,30.78l-16.42,11.63h63.62V193.93h68.41v159.39h88.93v43.78h63.99V93.54H93.59Z"/><path class="cls-1" d="M380.76,236.43v-6.28h-1.28v-2.57c.71,0,1.28-.57,1.28-1.28v-1.28h-2.6c-.33-6.47-3.15-15.35-10.28-18.26-.14-.56-.62-.98-1.22-.98v-1.28h-1.28v-8.98h-1.28c0-.71-.57-1.28-1.28-1.28s-1.28,.57-1.28,1.28h-1.28v8.98h-1.28v1.28c-.6,0-1.09,.43-1.22,.99-7.13,2.92-9.95,11.84-10.28,18.25h-2.6v1.28c0,.71,.57,1.28,1.28,1.28v2.57h-1.28v6.28l17.96-3.72,17.96,3.72Z"/><path class="cls-1" d="M400,282.22v-5.13h-1.28v-1.28h-1.28v-1.28h-.64l-.37-24.42c.57-.13,1.01-.62,1.01-1.23v-1.28h1.28v-2.57h1.28v-2.57l-37.2-7.7-37.2,7.7v2.57h1.28v2.57h1.28v1.28c0,.61,.44,1.1,1.01,1.23l-.37,24.42h-.64v1.28h-1.28v1.28h-1.28v5.13h-1.28v5.13h76.96v-5.13h-1.28Zm-58.36-7.7h-.64v1.28h-7.7v-1.28h-.64l-.37-24.42c.57-.13,1.01-.62,1.01-1.23v-1.28h7.7v1.28c0,.61,.44,1.1,1.01,1.23l-.37,24.42Zm12.83,0h-.64v1.28h-7.7v-1.28h-.64l-.37-24.42c.57-.13,1.01-.62,1.01-1.23v-1.28h7.7v1.28c0,.61,.44,1.1,1.01,1.23l-.37,24.42Zm12.83,0h-.64v1.28h-7.7v-1.28h-.64l-.37-24.42c.57-.13,1.01-.62,1.01-1.23v-1.28h7.7v1.28c0,.61,.44,1.1,1.01,1.23l-.37,24.42Zm12.83,0h-.64v1.28h-7.7v-1.28h-.64l-.37-24.42c.57-.13,1.01-.62,1.01-1.23v-1.28h7.7v1.28c0,.61,.44,1.1,1.01,1.23l-.37,24.42Zm12.83,0h-.64v1.28h-7.7v-1.28h-.64l-.37-24.42c.57-.13,1.01-.62,1.01-1.23v-1.28h7.7v1.28c0,.61,.44,1.1,1.01,1.23l-.37,24.42Z"/></svg>