<svg xmlns="http://www.w3.org/2000/svg" viewBox="0 0 400 400"><defs><style>.cls-1{fill:#00d1b2;}.cls-2{fill:#6200ee;}</style></defs><g id="Layer_2" data-name="Layer 2"><g id="Graphic_Shapes" data-name="Graphic Shapes"><rect class="cls-1" width="400" height="400" transform="translate(400 400) rotate(180)"/><path class="cls-2" d="M390.14,151.74c6.47,37.92.66,76.59-13.49,111.31a245.2,245.2,0,0,1-65.44,91.37c-17.28,15.12-36.84,28-59,34.42-21.34,6.19-43.92,4.61-65.72,0C112.37,373.33,24.43,330.73,9.58,245.36c-7.9-45.43,4.57-92,29.54-128.63C66.17,77,105.67,48.48,147.86,27.82c4.3-2.11,5.07-6.69,3.7-10.35C215.47.79,286.37-.74,338.46,50.57,365.69,77.39,383.72,114,390.14,151.74Z"/></g></g></svg>