<svg xmlns="http://www.w3.org/2000/svg" viewBox="0 0 400 400"><defs><style>.cls-1{fill:#00d1b2;}.cls-2{fill:#6200ee;}</style></defs><g id="Layer_2" data-name="Layer 2"><g id="Graphic_Shapes" data-name="Graphic Shapes"><rect class="cls-1" width="400" height="400" transform="translate(400 400) rotate(180)"/><ellipse class="cls-2" cx="57.92" cy="57.36" rx="22.92" ry="23.01"/><ellipse class="cls-2" cx="57.92" cy="152.45" rx="22.92" ry="23.01"/><ellipse class="cls-2" cx="57.92" cy="247.55" rx="22.92" ry="23.01"/><ellipse class="cls-2" cx="342.08" cy="152.45" rx="22.92" ry="23.01"/><ellipse class="cls-2" cx="342.08" cy="247.55" rx="22.92" ry="23.01"/><ellipse class="cls-2" cx="57.92" cy="342.64" rx="22.92" ry="23.01"/><ellipse class="cls-2" cx="152.64" cy="57.36" rx="22.92" ry="23.01"/><ellipse class="cls-2" cx="152.64" cy="152.45" rx="22.92" ry="23.01"/><ellipse class="cls-2" cx="152.64" cy="247.55" rx="22.92" ry="23.01"/><ellipse class="cls-2" cx="152.64" cy="342.64" rx="22.92" ry="23.01"/><ellipse class="cls-2" cx="247.36" cy="57.36" rx="22.92" ry="23.01"/><ellipse class="cls-2" cx="247.36" cy="152.45" rx="22.92" ry="23.01"/><ellipse class="cls-2" cx="247.36" cy="247.55" rx="22.92" ry="23.01"/><ellipse class="cls-2" cx="247.36" cy="342.64" rx="22.92" ry="23.01"/><ellipse class="cls-2" cx="342.08" cy="57.36" rx="22.92" ry="23.01"/><ellipse class="cls-2" cx="342.08" cy="342.64" rx="22.92" ry="23.01"/></g></g></svg>