<svg xmlns="http://www.w3.org/2000/svg" viewBox="0 0 400 400"><defs><style>.cls-1{fill:#00d1b2;}.cls-2{fill:#6200ee;stroke:#6200ee;stroke-miterlimit:10;stroke-width:3px;}</style></defs><g id="Layer_2" data-name="Layer 2"><g id="Graphic_Shapes" data-name="Graphic Shapes"><rect class="cls-1" width="400" height="400" transform="translate(400 400) rotate(180)"/><polygon class="cls-2" points="333.33 54.17 341.67 70.83 325 70.83 333.33 54.17"/><polygon class="cls-2" points="200 54.17 208.33 70.83 191.67 70.83 200 54.17"/><polygon class="cls-2" points="66.67 54.17 75 70.83 58.33 70.83 66.67 54.17"/><polygon class="cls-2" points="333.33 191.67 341.67 208.33 325 208.33 333.33 191.67"/><polygon class="cls-2" points="200 191.67 208.33 208.33 191.67 208.33 200 191.67"/><polygon class="cls-2" points="66.67 191.67 75 208.33 58.33 208.33 66.67 191.67"/><polygon class="cls-2" points="333.33 329.17 341.67 345.83 325 345.83 333.33 329.17"/><polygon class="cls-2" points="200 329.17 208.33 345.83 191.67 345.83 200 329.17"/><polygon class="cls-2" points="66.67 329.17 75 345.83 58.33 345.83 66.67 329.17"/></g></g></svg>