<svg width="238" height="105" viewBox="0 0 238 105" fill="none"
    xmlns="http://www.w3.org/2000/svg">
    <path d="M238 0H0V105H238V0Z" fill="#BC2628"/>
    <path d="M238 0H0V105H238V0Z" fill="#BC2628"/>
    <path d="M28.1076 46.6057C29.6787 46.6057 31.0582 45.2345 31.0582 43.6061C31.0582 41.8491 29.6787 40.9492 28.1076 40.9492H26.7278V46.6057H28.1076ZM32.2471 53.4621L28.511 48.1696C28.2775 48.1912 27.9806 48.1912 26.7278 48.1912V51.855L26.9402 53.4621H24.8176V41.3347L24.5415 39.3636H28.4899C30.8247 39.3636 33.075 40.7134 33.075 43.6061C33.075 45.2772 32.0349 46.8411 30.3579 47.6341L34.7095 53.4621H32.2471Z" fill="white"/>
    <path d="M36.8757 43.7559L36.5996 42.0848H43.244V43.5202H38.68V46.9056H42.7132L42.2676 48.341H38.68V52.0264H43.4986L43.053 53.4621H36.8757V43.7559Z" fill="white"/>
    <path d="M50.7803 53.7408L49.6129 53.5261L45.7918 44.0772V44.0986L44.603 42.0848H47.0021L50.0163 49.6911L50.3772 50.955L50.844 49.6055L54.0281 42.0848H55.8113L50.7803 53.7408Z" fill="white"/>
    <path d="M58.4658 49.0485H61.9682L60.4825 45.3418L60.2912 44.6988L60.058 45.3418L58.4658 49.0485ZM59.8667 42.0848L60.9496 41.8491L64.8341 51.4481L65.853 53.4621H63.7303L62.5201 50.5052H57.8928L56.64 53.4621H54.9419L59.8667 42.0848Z" fill="white"/>
    <path d="M77.0404 45.8343C78.2718 44.9772 79.3118 44.0773 79.3118 43.2203C79.3118 42.6203 78.8022 41.7849 77.5711 41.7849C76.5522 41.7849 75.8305 42.2774 75.8305 43.1563C75.8305 43.8845 76.2976 44.8061 77.0404 45.8343ZM80.3093 51.298C78.951 50.2695 77.5075 48.8338 76.4885 47.6552C75.491 48.4269 74.8752 49.0912 74.8752 49.9908C74.8752 51.1052 75.5758 52.3478 77.7199 52.3478C78.6326 52.3478 79.5665 52.0051 80.3093 51.298ZM84.7037 53.848C83.727 53.5261 82.6233 52.9267 81.4559 52.1337C80.3944 53.0979 78.8662 53.6762 77.1041 53.6762C74.8752 53.6762 73.0923 52.4766 73.0923 50.3554C73.0923 48.8768 74.3233 47.7624 75.7246 46.7555C74.7904 45.513 74.1535 44.2704 74.1535 43.3914C74.1535 41.635 75.5333 40.5204 77.7836 40.5204C79.7575 40.5204 80.9463 41.5062 80.9463 42.9203C80.9463 44.4842 79.3755 45.6628 77.8261 46.7555L77.7836 46.7985C78.7385 47.9555 80.0336 49.1984 81.2435 50.1626C81.7317 49.241 81.9863 48.2341 81.9863 46.9696V45.0202H85.8711L85.4888 46.3486H83.4512V46.8198C83.4512 48.2768 83.0692 49.841 82.3686 50.9767C83.6848 51.9409 84.937 52.5835 85.9136 52.7976L84.7463 53.848H84.7037Z" fill="white"/>
    <path d="M96.466 40.9062V51.9195H99.183C101.603 51.9195 103.343 49.4338 103.343 46.4558C103.343 43.4346 101.603 40.9062 99.183 40.9062H96.466ZM105.403 46.3273C105.403 50.334 102.876 53.4621 98.928 53.4621H94.555V41.3347L94.279 39.3636H99.565C102.515 39.3636 105.403 41.5491 105.403 46.3273Z" fill="white"/>
    <path d="M109.415 49.0485H112.918L111.432 45.3418L111.241 44.6988L111.008 45.3418L109.415 49.0485ZM110.816 42.0848L111.899 41.8491L115.784 51.4481L116.803 53.4621H114.68L113.47 50.5052H108.843L107.59 53.4621H105.892L110.816 42.0848Z" fill="white"/>
    <path d="M122.302 53.7408L121.134 53.5261L117.313 44.0772V44.0986L116.125 42.0848H118.523L121.538 49.6911L121.898 50.955L122.365 49.6055L125.55 42.0848H127.332L122.302 53.7408Z" fill="white"/>
    <path d="M131.536 52.0697L131.748 53.4621H129.732V43.7559L129.456 42.0848H131.536V52.0697Z" fill="white"/>
    <path d="M137.204 43.4776V52.048H139.603C141.768 52.048 143.297 50.1412 143.297 47.784C143.297 45.4273 141.768 43.4776 139.603 43.4776H137.204ZM139.943 42.0848C142.617 42.0848 145.249 43.7989 145.249 47.6987C145.249 50.934 142.957 53.4621 139.37 53.4621H135.4V43.7559L135.124 42.0848H139.943Z" fill="white"/>
    <path d="M154.315 41.3347L154.039 39.3636H156.226V51.8336H161.702L161.277 53.4621H154.315V41.3347Z" fill="white"/>
    <path d="M169.005 52.3481C171.234 52.3481 172.699 50.3127 172.699 47.8059C172.699 45.2986 171.234 43.2632 169.005 43.2632C166.777 43.2632 165.29 45.2986 165.29 47.8059C165.29 50.3127 166.777 52.3481 169.005 52.3481ZM174.652 47.6987C174.652 51.0626 172.147 53.7408 168.856 53.7408C165.333 53.7408 163.316 51.1268 163.316 47.9125C163.316 44.549 165.8 41.8705 169.09 41.8705C172.805 41.8705 174.652 44.356 174.652 47.6987Z" fill="white"/>
    <path d="M187.262 53.0979C187.262 53.0979 185.33 53.7408 182.868 53.7408C179.875 53.7408 176.988 51.7694 176.988 48.0411C176.988 44.4842 179.641 41.8702 183.016 41.8702C184.608 41.8702 186.031 42.3632 187.219 43.3488L186.243 44.613C185.351 43.7773 184.29 43.3061 183.038 43.3061C180.682 43.3061 178.919 45.5343 178.919 47.8699C178.919 50.6124 181.063 52.3478 183.207 52.3478C184.184 52.3478 185.5 52.0697 185.5 52.0697C185.5 51.1052 185.521 50.1194 185.521 49.1554L185.182 47.784H187.241L187.262 53.0979Z" fill="white"/>
    <path d="M193.292 49.0485H196.794L195.308 45.3418L195.118 44.6988L194.884 45.3418L193.292 49.0485ZM194.693 42.0848L195.775 41.8491L199.661 51.4481L200.679 53.4621H198.556L197.347 50.5052H192.719L191.466 53.4621H189.768L194.693 42.0848Z" fill="white"/>
    <path d="M213.331 52.0907L213.458 53.4621H212.44L205.35 46.284L204.607 45.2772V52.0697L204.819 53.4621H202.993V43.7346L202.739 42.0848H203.927L210.975 49.241L211.718 50.2478V43.7346L211.463 42.0848H213.331V52.0907Z" fill="white"/>
    <path d="M62.0957 65.0778H69.3556V66.663H64.282V71.1628H68.7187L68.2941 72.748H64.282V77.5691L64.4944 79.176H62.3718V67.0489L62.0957 65.0778Z" fill="white"/>
    <path d="M76.4459 78.0622C78.6748 78.0622 80.1397 76.0265 80.1397 73.5198C80.1397 71.0124 78.6748 68.9767 76.4459 68.9767C74.2171 68.9767 72.731 71.0124 72.731 73.5198C72.731 76.0265 74.2171 78.0622 76.4459 78.0622ZM82.0925 73.4126C82.0925 76.7761 79.5878 79.4546 76.2975 79.4546C72.7736 79.4546 70.7568 76.8406 70.7568 73.6267C70.7568 70.2628 73.2407 67.5843 76.531 67.5843C80.2456 67.5843 82.0925 70.0701 82.0925 73.4126Z" fill="white"/>
    <path d="M93.111 69.4482L92.8562 67.7984H94.809V74.6551C94.809 77.4616 92.7499 79.4543 89.608 79.4543C85.0441 79.4543 84.9379 75.3617 84.9379 75.084V69.4698L84.6621 67.7984H86.7425V74.9548C86.7425 76.7337 88.1009 78.0403 89.9478 78.0403C91.8158 78.0403 93.111 76.6046 93.111 74.8263V69.4482Z" fill="white"/>
    <path d="M108.778 77.8046L108.905 79.1757H107.886L100.796 71.9982L100.054 70.9913V77.7835L100.266 79.1757H98.44V69.4482L98.186 67.7984H99.374L106.422 74.9548L107.165 75.9617V69.4482L106.91 67.7984H108.778V77.8046Z" fill="white"/>
    <path d="M114.256 69.1914V77.7619H116.654C118.82 77.7619 120.348 75.8551 120.348 73.4981C120.348 71.1409 118.82 69.1914 116.654 69.1914H114.256ZM116.994 67.7984C119.669 67.7984 122.301 69.5127 122.301 73.4126C122.301 76.6475 120.008 79.176 116.421 79.176H112.451V69.4701L112.175 67.7984H116.994Z" fill="white"/>
    <path d="M126.739 74.7627H130.241L128.755 71.0559L128.564 70.4127L128.331 71.0559L126.739 74.7627ZM128.14 67.7987L129.222 67.5627L133.107 77.1619L134.126 79.176H132.003L130.793 76.2196H126.165L124.913 79.176H123.215L128.14 67.7987Z" fill="white"/>
    <path d="M133.787 67.7984H143.742V69.2554H139.603V77.7835L139.815 79.176H137.799V69.2554H133.787V67.7984Z" fill="white"/>
    <path d="M148.031 77.7835L148.243 79.176H146.227V69.4698L145.951 67.7984H148.031V77.7835Z" fill="white"/>
    <path d="M157.032 78.0622C159.26 78.0622 160.726 76.0265 160.726 73.5198C160.726 71.0124 159.26 68.9767 157.032 68.9767C154.803 68.9767 153.317 71.0124 153.317 73.5198C153.317 76.0265 154.803 78.0622 157.032 78.0622ZM162.678 73.4126C162.678 76.7761 160.174 79.4546 156.883 79.4546C153.36 79.4546 151.343 76.8406 151.343 73.6267C151.343 70.2628 153.826 67.5843 157.117 67.5843C160.831 67.5843 162.678 70.0701 162.678 73.4126Z" fill="white"/>
    <path d="M175.778 77.8046L175.905 79.1757H174.885L167.796 71.9982L167.052 70.9913V77.7835L167.265 79.1757H165.439V69.4482L165.185 67.7984H166.374L173.421 74.9548L174.164 75.9617V69.4482L173.91 67.7984H175.778V77.8046Z" fill="white"/>
    <path d="M109.036 21.7119H115.018V22.5872H112.531V27.7113L112.658 28.5482H111.446V22.5872H109.036V21.7119Z" fill="white"/>
    <path d="M122.723 27.7113L122.85 28.5482H121.638V25.4841H117.646V27.7113L117.774 28.5482H116.562V22.716L116.396 21.7119H117.646V24.5571H121.638V22.716L121.473 21.7119H122.723V27.7113Z" fill="white"/>
    <path d="M124.984 22.7159L124.818 21.7117H128.811V22.5742H126.068V24.6086H128.492L128.224 25.471H126.068V27.6853H128.964L128.696 28.5481H124.984V22.7159Z" fill="white"/>
</svg>
